<svg width="165" height="26" viewBox="0 0 165 26" fill="none" xmlns="http://www.w3.org/2000/svg">
<path d="M76.0859 1.84766C76.1639 1.89165 76.1957 1.98717 76.1602 2.06934L71.1299 13.6426H74.2422C74.3082 13.6426 74.3687 13.6794 74.3984 13.7383C74.4282 13.7972 74.422 13.8678 74.3828 13.9209L66.1406 25.1035C66.0882 25.1747 65.9911 25.1957 65.9141 25.1523C65.8372 25.109 65.8045 25.0152 65.8379 24.9336L69.3906 16.3125H66C65.9347 16.3125 65.8748 16.2757 65.8447 16.2178C65.8147 16.1597 65.8196 16.0895 65.8574 16.0361L75.8574 1.89941C75.9092 1.82619 76.0078 1.80365 76.0859 1.84766Z" fill="url(#paint0_linear_22_1078)" stroke="#7C7C7C" stroke-width="0.35" stroke-linejoin="round"></path>
<mask id="path-2-outside-1_22_1078" maskUnits="userSpaceOnUse" x="0" y="6" width="165" height="14" fill="black">
<rect fill="white" y="6" width="165" height="14"></rect>
<path d="M14.4312 9.334H4.22525L6.31325 9.964L6.06125 11.224H12.7932L12.1992 14.176H5.48525L4.51325 19H0.733245L3.25325 6.4H15.0072L14.4312 9.334ZM20.2485 15.436L19.5285 19H15.7485L17.9265 8.092C18.0225 7.588 18.2625 7.18 18.6465 6.868C19.0425 6.556 19.4925 6.4 19.9965 6.4H28.7265C29.0625 6.4 29.3685 6.472 29.6445 6.616C29.9325 6.748 30.1665 6.934 30.3465 7.174C30.5385 7.402 30.6765 7.666 30.7605 7.966C30.8445 8.266 30.8505 8.578 30.7785 8.902L28.7625 19H24.9825L25.7025 15.436H20.2485ZM26.2965 12.484L26.8185 9.838C26.8425 9.706 26.8125 9.592 26.7285 9.496C26.6445 9.388 26.5365 9.334 26.4045 9.334H19.2405L21.3285 9.964L20.8245 12.484H26.2965ZM32.5052 16.228L32.7032 15.22H36.4832L36.4112 15.562C36.3872 15.694 36.4172 15.814 36.5012 15.922C36.5852 16.018 36.6932 16.066 36.8252 16.066H43.9172L41.8112 15.436L42.0092 14.464C42.0332 14.332 42.0032 14.218 41.9192 14.122C41.8352 14.014 41.7272 13.96 41.5952 13.96H35.7632C35.4032 13.96 35.0672 13.882 34.7552 13.726C34.4432 13.57 34.1852 13.366 33.9812 13.114C33.7772 12.862 33.6272 12.568 33.5312 12.232C33.4472 11.896 33.4412 11.548 33.5132 11.188L34.0892 8.254C34.1972 7.714 34.4612 7.27 34.8812 6.922C35.3132 6.574 35.8052 6.4 36.3572 6.4H44.6732C45.0332 6.4 45.3692 6.478 45.6812 6.634C45.9932 6.79 46.2512 6.994 46.4552 7.246C46.6592 7.498 46.8092 7.792 46.9052 8.128C47.0012 8.452 47.0132 8.794 46.9412 9.154L46.7252 10.18H42.9452L43.0172 9.838C43.0412 9.706 43.0112 9.592 42.9272 9.496C42.8432 9.388 42.7352 9.334 42.6032 9.334H35.4392L37.5272 9.964L37.3832 10.72C37.3592 10.852 37.3892 10.972 37.4732 11.08C37.5572 11.176 37.6652 11.224 37.7972 11.224H42.5672C42.9272 11.224 43.2212 11.224 43.4492 11.224L43.7912 11.242C44.1392 11.266 44.4512 11.362 44.7272 11.53C45.0152 11.686 45.2552 11.89 45.4472 12.142C45.6392 12.394 45.7772 12.682 45.8612 13.006C45.9452 13.318 45.9512 13.648 45.8792 13.996L45.2492 17.146C45.1412 17.686 44.8712 18.13 44.4392 18.478C44.0192 18.826 43.5332 19 42.9812 19H34.7552C34.3952 19 34.0592 18.922 33.7472 18.766C33.4352 18.61 33.1772 18.406 32.9732 18.154C32.7692 17.902 32.6192 17.608 32.5232 17.272C32.4392 16.936 32.4332 16.588 32.5052 16.228ZM49.8358 6.4H62.6878L62.0938 9.334H55.6678L57.7738 9.964L55.9558 19H51.7618L53.6878 9.334H49.2418L49.8358 6.4ZM94.4058 15.436H85.2078L84.5058 19H80.5098L83.0298 6.4H95.6838C95.9718 6.4 96.2358 6.46 96.4758 6.58C96.7278 6.7 96.9378 6.868 97.1058 7.084C97.2738 7.288 97.3938 7.522 97.4658 7.786C97.5498 8.05 97.5618 8.326 97.5018 8.614L96.4758 13.744C96.3798 14.236 96.1338 14.644 95.7378 14.968C95.3538 15.28 94.9098 15.436 94.4058 15.436ZM85.8018 12.484H92.6058C92.7018 12.484 92.7858 12.454 92.8578 12.394C92.9298 12.334 92.9778 12.256 93.0018 12.16L93.4698 9.838C93.4938 9.706 93.4638 9.592 93.3798 9.496C93.2958 9.388 93.1878 9.334 93.0558 9.334H84.1998L86.3058 9.964L85.8018 12.484ZM112.106 6.4C112.43 6.4 112.73 6.472 113.006 6.616C113.294 6.748 113.534 6.934 113.726 7.174C113.918 7.402 114.056 7.666 114.14 7.966C114.224 8.266 114.23 8.578 114.158 8.902L112.484 17.308C112.388 17.812 112.142 18.22 111.746 18.532C111.362 18.844 110.918 19 110.414 19H101.27C100.934 19 100.622 18.934 100.334 18.802C100.058 18.658 99.8237 18.472 99.6317 18.244C99.4517 18.004 99.3197 17.734 99.2357 17.434C99.1517 17.122 99.1397 16.804 99.1997 16.48L100.892 8.092C100.988 7.588 101.228 7.18 101.612 6.868C101.996 6.556 102.44 6.4 102.944 6.4H112.106ZM102.188 9.334L104.294 9.964L103.178 15.562C103.154 15.694 103.184 15.814 103.268 15.922C103.352 16.018 103.46 16.066 103.592 16.066H111.17L109.082 15.436L110.198 9.838C110.222 9.706 110.192 9.592 110.108 9.496C110.024 9.388 109.916 9.334 109.784 9.334H102.188ZM122.077 13.888L118.351 16.786L120.241 15.85L119.611 19H115.831L118.351 6.4H122.131L121.231 10.918L127.387 6.4H131.797L124.993 11.638L129.907 19H125.497L122.077 13.888ZM135.54 9.334L137.646 9.964L137.376 11.332H144.108L143.568 14.068H136.818L136.53 15.562C136.506 15.694 136.536 15.814 136.62 15.922C136.704 16.018 136.812 16.066 136.944 16.066H144.396L143.82 19H134.622C134.286 19 133.974 18.934 133.686 18.802C133.41 18.658 133.176 18.472 132.984 18.244C132.804 18.004 132.672 17.734 132.588 17.434C132.504 17.122 132.492 16.804 132.552 16.48L134.568 6.4H146.34L145.746 9.334H135.54ZM156.605 15.436H151.997L151.277 19H147.497L150.017 6.4H162.149C162.485 6.4 162.791 6.472 163.067 6.616C163.355 6.748 163.589 6.934 163.769 7.174C163.961 7.402 164.099 7.666 164.183 7.966C164.267 8.266 164.279 8.578 164.219 8.902L163.247 13.744C163.151 14.236 162.911 14.644 162.527 14.968C162.143 15.28 161.699 15.436 161.195 15.436H160.385L161.987 19H158.207L156.605 15.436ZM159.377 12.484C159.473 12.484 159.557 12.454 159.629 12.394C159.713 12.334 159.767 12.256 159.791 12.16L160.241 9.838C160.265 9.706 160.235 9.592 160.151 9.496C160.079 9.388 159.977 9.334 159.845 9.334H150.989L153.077 9.964L152.573 12.484H159.377Z"></path>
</mask>
<g filter="url(#filter0_i_22_1078)">
<path d="M14.4312 9.334H4.22525L6.31325 9.964L6.06125 11.224H12.7932L12.1992 14.176H5.48525L4.51325 19H0.733245L3.25325 6.4H15.0072L14.4312 9.334ZM20.2485 15.436L19.5285 19H15.7485L17.9265 8.092C18.0225 7.588 18.2625 7.18 18.6465 6.868C19.0425 6.556 19.4925 6.4 19.9965 6.4H28.7265C29.0625 6.4 29.3685 6.472 29.6445 6.616C29.9325 6.748 30.1665 6.934 30.3465 7.174C30.5385 7.402 30.6765 7.666 30.7605 7.966C30.8445 8.266 30.8505 8.578 30.7785 8.902L28.7625 19H24.9825L25.7025 15.436H20.2485ZM26.2965 12.484L26.8185 9.838C26.8425 9.706 26.8125 9.592 26.7285 9.496C26.6445 9.388 26.5365 9.334 26.4045 9.334H19.2405L21.3285 9.964L20.8245 12.484H26.2965ZM32.5052 16.228L32.7032 15.22H36.4832L36.4112 15.562C36.3872 15.694 36.4172 15.814 36.5012 15.922C36.5852 16.018 36.6932 16.066 36.8252 16.066H43.9172L41.8112 15.436L42.0092 14.464C42.0332 14.332 42.0032 14.218 41.9192 14.122C41.8352 14.014 41.7272 13.96 41.5952 13.96H35.7632C35.4032 13.96 35.0672 13.882 34.7552 13.726C34.4432 13.57 34.1852 13.366 33.9812 13.114C33.7772 12.862 33.6272 12.568 33.5312 12.232C33.4472 11.896 33.4412 11.548 33.5132 11.188L34.0892 8.254C34.1972 7.714 34.4612 7.27 34.8812 6.922C35.3132 6.574 35.8052 6.4 36.3572 6.4H44.6732C45.0332 6.4 45.3692 6.478 45.6812 6.634C45.9932 6.79 46.2512 6.994 46.4552 7.246C46.6592 7.498 46.8092 7.792 46.9052 8.128C47.0012 8.452 47.0132 8.794 46.9412 9.154L46.7252 10.18H42.9452L43.0172 9.838C43.0412 9.706 43.0112 9.592 42.9272 9.496C42.8432 9.388 42.7352 9.334 42.6032 9.334H35.4392L37.5272 9.964L37.3832 10.72C37.3592 10.852 37.3892 10.972 37.4732 11.08C37.5572 11.176 37.6652 11.224 37.7972 11.224H42.5672C42.9272 11.224 43.2212 11.224 43.4492 11.224L43.7912 11.242C44.1392 11.266 44.4512 11.362 44.7272 11.53C45.0152 11.686 45.2552 11.89 45.4472 12.142C45.6392 12.394 45.7772 12.682 45.8612 13.006C45.9452 13.318 45.9512 13.648 45.8792 13.996L45.2492 17.146C45.1412 17.686 44.8712 18.13 44.4392 18.478C44.0192 18.826 43.5332 19 42.9812 19H34.7552C34.3952 19 34.0592 18.922 33.7472 18.766C33.4352 18.61 33.1772 18.406 32.9732 18.154C32.7692 17.902 32.6192 17.608 32.5232 17.272C32.4392 16.936 32.4332 16.588 32.5052 16.228ZM49.8358 6.4H62.6878L62.0938 9.334H55.6678L57.7738 9.964L55.9558 19H51.7618L53.6878 9.334H49.2418L49.8358 6.4ZM94.4058 15.436H85.2078L84.5058 19H80.5098L83.0298 6.4H95.6838C95.9718 6.4 96.2358 6.46 96.4758 6.58C96.7278 6.7 96.9378 6.868 97.1058 7.084C97.2738 7.288 97.3938 7.522 97.4658 7.786C97.5498 8.05 97.5618 8.326 97.5018 8.614L96.4758 13.744C96.3798 14.236 96.1338 14.644 95.7378 14.968C95.3538 15.28 94.9098 15.436 94.4058 15.436ZM85.8018 12.484H92.6058C92.7018 12.484 92.7858 12.454 92.8578 12.394C92.9298 12.334 92.9778 12.256 93.0018 12.16L93.4698 9.838C93.4938 9.706 93.4638 9.592 93.3798 9.496C93.2958 9.388 93.1878 9.334 93.0558 9.334H84.1998L86.3058 9.964L85.8018 12.484ZM112.106 6.4C112.43 6.4 112.73 6.472 113.006 6.616C113.294 6.748 113.534 6.934 113.726 7.174C113.918 7.402 114.056 7.666 114.14 7.966C114.224 8.266 114.23 8.578 114.158 8.902L112.484 17.308C112.388 17.812 112.142 18.22 111.746 18.532C111.362 18.844 110.918 19 110.414 19H101.27C100.934 19 100.622 18.934 100.334 18.802C100.058 18.658 99.8237 18.472 99.6317 18.244C99.4517 18.004 99.3197 17.734 99.2357 17.434C99.1517 17.122 99.1397 16.804 99.1997 16.48L100.892 8.092C100.988 7.588 101.228 7.18 101.612 6.868C101.996 6.556 102.44 6.4 102.944 6.4H112.106ZM102.188 9.334L104.294 9.964L103.178 15.562C103.154 15.694 103.184 15.814 103.268 15.922C103.352 16.018 103.46 16.066 103.592 16.066H111.17L109.082 15.436L110.198 9.838C110.222 9.706 110.192 9.592 110.108 9.496C110.024 9.388 109.916 9.334 109.784 9.334H102.188ZM122.077 13.888L118.351 16.786L120.241 15.85L119.611 19H115.831L118.351 6.4H122.131L121.231 10.918L127.387 6.4H131.797L124.993 11.638L129.907 19H125.497L122.077 13.888ZM135.54 9.334L137.646 9.964L137.376 11.332H144.108L143.568 14.068H136.818L136.53 15.562C136.506 15.694 136.536 15.814 136.62 15.922C136.704 16.018 136.812 16.066 136.944 16.066H144.396L143.82 19H134.622C134.286 19 133.974 18.934 133.686 18.802C133.41 18.658 133.176 18.472 132.984 18.244C132.804 18.004 132.672 17.734 132.588 17.434C132.504 17.122 132.492 16.804 132.552 16.48L134.568 6.4H146.34L145.746 9.334H135.54ZM156.605 15.436H151.997L151.277 19H147.497L150.017 6.4H162.149C162.485 6.4 162.791 6.472 163.067 6.616C163.355 6.748 163.589 6.934 163.769 7.174C163.961 7.402 164.099 7.666 164.183 7.966C164.267 8.266 164.279 8.578 164.219 8.902L163.247 13.744C163.151 14.236 162.911 14.644 162.527 14.968C162.143 15.28 161.699 15.436 161.195 15.436H160.385L161.987 19H158.207L156.605 15.436ZM159.377 12.484C159.473 12.484 159.557 12.454 159.629 12.394C159.713 12.334 159.767 12.256 159.791 12.16L160.241 9.838C160.265 9.706 160.235 9.592 160.151 9.496C160.079 9.388 159.977 9.334 159.845 9.334H150.989L153.077 9.964L152.573 12.484H159.377Z" fill="#0F0F0F"></path>
</g>
<path d="M14.4312 9.334V9.584H14.6369L14.6766 9.38216L14.4312 9.334ZM4.22525 9.334V9.084L4.15303 9.57334L4.22525 9.334ZM6.31325 9.964L6.55839 10.013L6.60294 9.79028L6.38546 9.72466L6.31325 9.964ZM6.06125 11.224L5.8161 11.175L5.75629 11.474H6.06125V11.224ZM12.7932 11.224L13.0383 11.2733L13.0986 10.974H12.7932V11.224ZM12.1992 14.176V14.426H12.404L12.4443 14.2253L12.1992 14.176ZM5.48525 14.176V13.926H5.28059L5.24017 14.1266L5.48525 14.176ZM4.51325 19V19.25H4.7179L4.75832 19.0494L4.51325 19ZM0.733245 19L0.4881 18.951L0.428294 19.25H0.733245V19ZM3.25325 6.4V6.15H3.04829L3.0081 6.35097L3.25325 6.4ZM15.0072 6.4L15.2526 6.44816L15.3111 6.15H15.0072V6.4ZM14.4312 9.334V9.084H4.22525V9.334V9.584H14.4312V9.334ZM4.22525 9.334L4.15303 9.57334L6.24103 10.2033L6.31325 9.964L6.38546 9.72466L4.29746 9.09466L4.22525 9.334ZM6.31325 9.964L6.0681 9.91497L5.8161 11.175L6.06125 11.224L6.30639 11.273L6.55839 10.013L6.31325 9.964ZM6.06125 11.224V11.474H12.7932V11.224V10.974H6.06125V11.224ZM12.7932 11.224L12.5482 11.1747L11.9542 14.1267L12.1992 14.176L12.4443 14.2253L13.0383 11.2733L12.7932 11.224ZM12.1992 14.176V13.926H5.48525V14.176V14.426H12.1992V14.176ZM5.48525 14.176L5.24017 14.1266L4.26817 18.9506L4.51325 19L4.75832 19.0494L5.73032 14.2254L5.48525 14.176ZM4.51325 19V18.75H0.733245V19V19.25H4.51325V19ZM0.733245 19L0.97839 19.049L3.49839 6.44903L3.25325 6.4L3.0081 6.35097L0.4881 18.951L0.733245 19ZM3.25325 6.4V6.65H15.0072V6.4V6.15H3.25325V6.4ZM15.0072 6.4L14.7619 6.35184L14.1859 9.28584L14.4312 9.334L14.6766 9.38216L15.2526 6.44816L15.0072 6.4ZM20.2485 15.436V15.186H20.0439L20.0034 15.3865L20.2485 15.436ZM19.5285 19V19.25H19.733L19.7735 19.0495L19.5285 19ZM15.7485 19L15.5033 18.951L15.4436 19.25H15.7485V19ZM17.9265 8.092L18.1716 8.14095L18.1721 8.13878L17.9265 8.092ZM18.6465 6.868L18.4917 6.6716L18.4888 6.67397L18.6465 6.868ZM29.6445 6.616L29.5287 6.83794L29.5403 6.84327L29.6445 6.616ZM30.3465 7.174L30.1462 7.32424L30.1553 7.33503L30.3465 7.174ZM30.7605 7.966L30.5197 8.03341V8.03341L30.7605 7.966ZM30.7785 8.902L30.5344 8.84775L30.5333 8.85305L30.7785 8.902ZM28.7625 19V19.25H28.9675L29.0076 19.0489L28.7625 19ZM24.9825 19L24.7374 18.9505L24.6769 19.25H24.9825V19ZM25.7025 15.436L25.9475 15.4855L26.008 15.186H25.7025V15.436ZM26.2965 12.484V12.734H26.502L26.5418 12.5324L26.2965 12.484ZM26.8185 9.838L27.0638 9.88639L27.0644 9.88272L26.8185 9.838ZM26.7285 9.496L26.5311 9.64949L26.5356 9.65519L26.5403 9.66063L26.7285 9.496ZM19.2405 9.334V9.084L19.1683 9.57334L19.2405 9.334ZM21.3285 9.964L21.5736 10.013L21.6182 9.79028L21.4007 9.72466L21.3285 9.964ZM20.8245 12.484L20.5793 12.435L20.5195 12.734H20.8245V12.484ZM20.2485 15.436L20.0034 15.3865L19.2834 18.9505L19.5285 19L19.7735 19.0495L20.4935 15.4855L20.2485 15.436ZM19.5285 19V18.75H15.7485V19V19.25H19.5285V19ZM15.7485 19L15.9936 19.049L18.1716 8.14095L17.9265 8.092L17.6813 8.04305L15.5033 18.951L15.7485 19ZM17.9265 8.092L18.1721 8.13878C18.2575 7.69036 18.4677 7.33538 18.8041 7.06203L18.6465 6.868L18.4888 6.67397C18.0573 7.02462 17.7875 7.48564 17.6809 8.04522L17.9265 8.092ZM18.6465 6.868L18.8012 7.06437C19.1531 6.7871 19.5486 6.65 19.9965 6.65V6.4V6.15C19.4363 6.15 18.9318 6.3249 18.4918 6.67163L18.6465 6.868ZM19.9965 6.4V6.65H28.7265V6.4V6.15H19.9965V6.4ZM28.7265 6.4V6.65C29.0255 6.65 29.2913 6.71373 29.5288 6.83765L29.6445 6.616L29.7601 6.39435C29.4456 6.23027 29.0995 6.15 28.7265 6.15V6.4ZM29.6445 6.616L29.5403 6.84327C29.7926 6.95891 29.9929 7.11922 30.1465 7.324L30.3465 7.174L30.5465 7.024C30.3401 6.74878 30.0723 6.53709 29.7486 6.38873L29.6445 6.616ZM30.3465 7.174L30.1553 7.33503C30.3232 7.53448 30.4449 7.7662 30.5197 8.03341L30.7605 7.966L31.0012 7.89859C30.908 7.56579 30.7537 7.26952 30.5377 7.01297L30.3465 7.174ZM30.7605 7.966L30.5197 8.03341C30.5919 8.29117 30.5981 8.56126 30.5344 8.84777L30.7785 8.902L31.0225 8.95623C31.1029 8.59474 31.097 8.24083 31.0012 7.89859L30.7605 7.966ZM30.7785 8.902L30.5333 8.85305L28.5173 18.9511L28.7625 19L29.0076 19.0489L31.0236 8.95094L30.7785 8.902ZM28.7625 19V18.75H24.9825V19V19.25H28.7625V19ZM24.9825 19L25.2275 19.0495L25.9475 15.4855L25.7025 15.436L25.4574 15.3865L24.7374 18.9505L24.9825 19ZM25.7025 15.436V15.186H20.2485V15.436V15.686H25.7025V15.436ZM26.2965 12.484L26.5418 12.5324L27.0638 9.88639L26.8185 9.838L26.5732 9.78961L26.0512 12.4356L26.2965 12.484ZM26.8185 9.838L27.0644 9.88272C27.1013 9.68026 27.0537 9.48805 26.9166 9.33137L26.7285 9.496L26.5403 9.66063C26.5712 9.69595 26.5837 9.73174 26.5725 9.79328L26.8185 9.838ZM26.7285 9.496L26.9258 9.34251C26.7965 9.17621 26.6169 9.084 26.4045 9.084V9.334V9.584C26.4561 9.584 26.4925 9.59979 26.5311 9.64949L26.7285 9.496ZM26.4045 9.334V9.084H19.2405V9.334V9.584H26.4045V9.334ZM19.2405 9.334L19.1683 9.57334L21.2563 10.2033L21.3285 9.964L21.4007 9.72466L19.3127 9.09466L19.2405 9.334ZM21.3285 9.964L21.0833 9.91497L20.5793 12.435L20.8245 12.484L21.0696 12.533L21.5736 10.013L21.3285 9.964ZM20.8245 12.484V12.734H26.2965V12.484V12.234H20.8245V12.484ZM32.5052 16.228L32.7504 16.277L32.7505 16.2762L32.5052 16.228ZM32.7032 15.22V14.97H32.4975L32.4579 15.1718L32.7032 15.22ZM36.4832 15.22L36.7279 15.2715L36.7913 14.97H36.4832V15.22ZM36.4112 15.562L36.1665 15.5105L36.1652 15.5173L36.4112 15.562ZM36.5012 15.922L36.3039 16.0755L36.3083 16.0812L36.3131 16.0866L36.5012 15.922ZM43.9172 16.066V16.316L43.9889 15.8265L43.9172 16.066ZM41.8112 15.436L41.5662 15.3861L41.5206 15.61L41.7396 15.6755L41.8112 15.436ZM42.0092 14.464L42.2542 14.5139L42.2552 14.5087L42.0092 14.464ZM41.9192 14.122L41.7219 14.2755L41.7263 14.2812L41.7311 14.2866L41.9192 14.122ZM34.7552 13.726L34.6434 13.9496V13.9496L34.7552 13.726ZM33.9812 13.114L33.7869 13.2713V13.2713L33.9812 13.114ZM33.5312 12.232L33.2885 12.2927L33.2908 12.3007L33.5312 12.232ZM33.5132 11.188L33.7584 11.237L33.7585 11.2362L33.5132 11.188ZM34.0892 8.254L33.8441 8.20497L33.8439 8.20584L34.0892 8.254ZM34.8812 6.922L34.7244 6.72729L34.7217 6.72949L34.8812 6.922ZM45.6812 6.634L45.793 6.41039V6.41039L45.6812 6.634ZM46.4552 7.246L46.6495 7.0887V7.0887L46.4552 7.246ZM46.9052 8.128L46.6648 8.19668L46.6655 8.19902L46.9052 8.128ZM46.9412 9.154L47.1859 9.2055L47.1864 9.20303L46.9412 9.154ZM46.7252 10.18V10.43H46.9281L46.9699 10.2315L46.7252 10.18ZM42.9452 10.18L42.7006 10.1285L42.6371 10.43H42.9452V10.18ZM43.0172 9.838L43.2619 9.88952L43.2632 9.88272L43.0172 9.838ZM42.9272 9.496L42.7299 9.64949L42.7343 9.65519L42.7391 9.66063L42.9272 9.496ZM35.4392 9.334V9.084L35.367 9.57334L35.4392 9.334ZM37.5272 9.964L37.7728 10.0108L37.8149 9.78967L37.5994 9.72466L37.5272 9.964ZM37.3832 10.72L37.1376 10.6732L37.1372 10.6753L37.3832 10.72ZM37.4732 11.08L37.2759 11.2335L37.2803 11.2392L37.2851 11.2446L37.4732 11.08ZM43.4492 11.224L43.4624 10.974H43.4492V11.224ZM43.7912 11.242L43.8084 10.9926L43.8044 10.9923L43.7912 11.242ZM44.7272 11.53L44.5971 11.7438L44.6081 11.7498L44.7272 11.53ZM45.4472 12.142L45.6461 11.9905V11.9905L45.4472 12.142ZM45.8612 13.006L45.6192 13.0687L45.6198 13.071L45.8612 13.006ZM45.8792 13.996L45.6344 13.9453L45.6341 13.947L45.8792 13.996ZM45.2492 17.146L45.0041 17.097V17.097L45.2492 17.146ZM44.4392 18.478L44.2824 18.2833L44.2797 18.2855L44.4392 18.478ZM33.7472 18.766L33.859 18.5424V18.5424L33.7472 18.766ZM32.9732 18.154L33.1675 17.9967V17.9967L32.9732 18.154ZM32.5232 17.272L32.2805 17.3327L32.2828 17.3407L32.5232 17.272ZM32.5052 16.228L32.7505 16.2762L32.9485 15.2682L32.7032 15.22L32.4579 15.1718L32.2599 16.1798L32.5052 16.228ZM32.7032 15.22V15.47H36.4832V15.22V14.97H32.7032V15.22ZM36.4832 15.22L36.2386 15.1685L36.1666 15.5105L36.4112 15.562L36.6558 15.6135L36.7279 15.2715L36.4832 15.22ZM36.4112 15.562L36.1652 15.5173C36.1282 15.7208 36.1772 15.9126 36.3039 16.0755L36.5012 15.922L36.6986 15.7685C36.6572 15.7154 36.6462 15.6672 36.6572 15.6067L36.4112 15.562ZM36.5012 15.922L36.3131 16.0866C36.4464 16.239 36.624 16.316 36.8252 16.316V16.066V15.816C36.7624 15.816 36.724 15.797 36.6894 15.7574L36.5012 15.922ZM36.8252 16.066V16.316H43.9172V16.066V15.816H36.8252V16.066ZM43.9172 16.066L43.9889 15.8265L41.8829 15.1965L41.8112 15.436L41.7396 15.6755L43.8456 16.3055L43.9172 16.066ZM41.8112 15.436L42.0562 15.4859L42.2542 14.5139L42.0092 14.464L41.7642 14.4141L41.5662 15.3861L41.8112 15.436ZM42.0092 14.464L42.2552 14.5087C42.292 14.3063 42.2444 14.114 42.1074 13.9574L41.9192 14.122L41.7311 14.2866C41.762 14.322 41.7744 14.3577 41.7632 14.4193L42.0092 14.464ZM41.9192 14.122L42.1166 13.9685C41.9872 13.8022 41.8076 13.71 41.5952 13.71V13.96V14.21C41.6468 14.21 41.6832 14.2258 41.7219 14.2755L41.9192 14.122ZM41.5952 13.96V13.71H35.7632V13.96V14.21H41.5952V13.96ZM35.7632 13.96V13.71C35.4407 13.71 35.1432 13.6405 34.867 13.5024L34.7552 13.726L34.6434 13.9496C34.9913 14.1235 35.3657 14.21 35.7632 14.21V13.96ZM34.7552 13.726L34.867 13.5024C34.5845 13.3611 34.3554 13.1789 34.1755 12.9567L33.9812 13.114L33.7869 13.2713C34.015 13.5531 34.3019 13.7789 34.6434 13.9496L34.7552 13.726ZM33.9812 13.114L34.1755 12.9567C33.9943 12.7328 33.8591 12.4695 33.7716 12.1633L33.5312 12.232L33.2908 12.3007C33.3953 12.6665 33.5601 12.9912 33.7869 13.2713L33.9812 13.114ZM33.5312 12.232L33.7738 12.1714C33.6993 11.8734 33.6932 11.563 33.7584 11.237L33.5132 11.188L33.2681 11.139C33.1893 11.533 33.1952 11.9186 33.2887 12.2926L33.5312 12.232ZM33.5132 11.188L33.7585 11.2362L34.3345 8.30216L34.0892 8.254L33.8439 8.20584L33.2679 11.1398L33.5132 11.188ZM34.0892 8.254L34.3344 8.30303C34.4312 7.81867 34.6653 7.42554 35.0407 7.11451L34.8812 6.922L34.7217 6.72949C34.2571 7.11446 33.9632 7.60933 33.8441 8.20497L34.0892 8.254ZM34.8812 6.922L35.038 7.11669C35.4259 6.80429 35.8626 6.65 36.3572 6.65V6.4V6.15C35.7478 6.15 35.2006 6.34371 34.7244 6.72731L34.8812 6.922ZM36.3572 6.4V6.65H44.6732V6.4V6.15H36.3572V6.4ZM44.6732 6.4V6.65C44.9957 6.65 45.2933 6.71953 45.5694 6.85761L45.6812 6.634L45.793 6.41039C45.4452 6.23647 45.0707 6.15 44.6732 6.15V6.4ZM45.6812 6.634L45.5694 6.85761C45.852 6.99888 46.081 7.1811 46.2609 7.4033L46.4552 7.246L46.6495 7.0887C46.4214 6.8069 46.1345 6.58112 45.793 6.41039L45.6812 6.634ZM46.4552 7.246L46.2609 7.4033C46.4421 7.62718 46.5773 7.89047 46.6648 8.19668L46.9052 8.128L47.1456 8.05932C47.0411 7.69353 46.8763 7.36882 46.6495 7.0887L46.4552 7.246ZM46.9052 8.128L46.6655 8.19902C46.749 8.48074 46.7608 8.78131 46.6961 9.10497L46.9412 9.154L47.1864 9.20303C47.2656 8.80669 47.2534 8.42326 47.1449 8.05698L46.9052 8.128ZM46.9412 9.154L46.6966 9.1025L46.4806 10.1285L46.7252 10.18L46.9699 10.2315L47.1859 9.2055L46.9412 9.154ZM46.7252 10.18V9.93H42.9452V10.18V10.43H46.7252V10.18ZM42.9452 10.18L43.1898 10.2315L43.2619 9.8895L43.0172 9.838L42.7726 9.7865L42.7006 10.1285L42.9452 10.18ZM43.0172 9.838L43.2632 9.88272C43.3 9.68026 43.2524 9.48805 43.1154 9.33137L42.9272 9.496L42.7391 9.66063C42.77 9.69595 42.7824 9.73174 42.7712 9.79328L43.0172 9.838ZM42.9272 9.496L43.1245 9.34251C42.9952 9.17621 42.8156 9.084 42.6032 9.084V9.334V9.584C42.6548 9.584 42.6912 9.59979 42.7299 9.64949L42.9272 9.496ZM42.6032 9.334V9.084H35.4392V9.334V9.584H42.6032V9.334ZM35.4392 9.334L35.367 9.57334L37.455 10.2033L37.5272 9.964L37.5994 9.72466L35.5114 9.09466L35.4392 9.334ZM37.5272 9.964L37.2816 9.91722L37.1376 10.6732L37.3832 10.72L37.6288 10.7668L37.7728 10.0108L37.5272 9.964ZM37.3832 10.72L37.1372 10.6753C37.1002 10.8788 37.1492 11.0706 37.2759 11.2335L37.4732 11.08L37.6706 10.9265C37.6292 10.8734 37.6182 10.8252 37.6292 10.7647L37.3832 10.72ZM37.4732 11.08L37.2851 11.2446C37.4184 11.397 37.596 11.474 37.7972 11.474V11.224V10.974C37.7344 10.974 37.696 10.955 37.6614 10.9154L37.4732 11.08ZM37.7972 11.224V11.474H42.5672V11.224V10.974H37.7972V11.224ZM42.5672 11.224V11.474C42.5679 11.474 42.5686 11.474 42.5693 11.474C42.57 11.474 42.5707 11.474 42.5714 11.474C42.5721 11.474 42.5728 11.474 42.5735 11.474C42.5742 11.474 42.5749 11.474 42.5756 11.474C42.5763 11.474 42.577 11.474 42.5777 11.474C42.5784 11.474 42.5791 11.474 42.5798 11.474C42.5805 11.474 42.5812 11.474 42.5819 11.474C42.5826 11.474 42.5833 11.474 42.584 11.474C42.5847 11.474 42.5854 11.474 42.5861 11.474C42.5868 11.474 42.5875 11.474 42.5882 11.474C42.5889 11.474 42.5896 11.474 42.5903 11.474C42.591 11.474 42.5917 11.474 42.5924 11.474C42.5931 11.474 42.5938 11.474 42.5945 11.474C42.5952 11.474 42.5959 11.474 42.5966 11.474C42.5973 11.474 42.598 11.474 42.5987 11.474C42.5994 11.474 42.6001 11.474 42.6008 11.474C42.6015 11.474 42.6022 11.474 42.6029 11.474C42.6035 11.474 42.6042 11.474 42.6049 11.474C42.6056 11.474 42.6063 11.474 42.607 11.474C42.6077 11.474 42.6084 11.474 42.6091 11.474C42.6098 11.474 42.6105 11.474 42.6112 11.474C42.6119 11.474 42.6126 11.474 42.6133 11.474C42.6139 11.474 42.6146 11.474 42.6153 11.474C42.616 11.474 42.6167 11.474 42.6174 11.474C42.6181 11.474 42.6188 11.474 42.6195 11.474C42.6202 11.474 42.6209 11.474 42.6215 11.474C42.6222 11.474 42.6229 11.474 42.6236 11.474C42.6243 11.474 42.625 11.474 42.6257 11.474C42.6264 11.474 42.6271 11.474 42.6278 11.474C42.6284 11.474 42.6291 11.474 42.6298 11.474C42.6305 11.474 42.6312 11.474 42.6319 11.474C42.6326 11.474 42.6333 11.474 42.6339 11.474C42.6346 11.474 42.6353 11.474 42.636 11.474C42.6367 11.474 42.6374 11.474 42.6381 11.474C42.6387 11.474 42.6394 11.474 42.6401 11.474C42.6408 11.474 42.6415 11.474 42.6422 11.474C42.6429 11.474 42.6435 11.474 42.6442 11.474C42.6449 11.474 42.6456 11.474 42.6463 11.474C42.647 11.474 42.6476 11.474 42.6483 11.474C42.649 11.474 42.6497 11.474 42.6504 11.474C42.6511 11.474 42.6517 11.474 42.6524 11.474C42.6531 11.474 42.6538 11.474 42.6545 11.474C42.6552 11.474 42.6558 11.474 42.6565 11.474C42.6572 11.474 42.6579 11.474 42.6586 11.474C42.6592 11.474 42.6599 11.474 42.6606 11.474C42.6613 11.474 42.662 11.474 42.6626 11.474C42.6633 11.474 42.664 11.474 42.6647 11.474C42.6654 11.474 42.666 11.474 42.6667 11.474C42.6674 11.474 42.6681 11.474 42.6688 11.474C42.6694 11.474 42.6701 11.474 42.6708 11.474C42.6715 11.474 42.6721 11.474 42.6728 11.474C42.6735 11.474 42.6742 11.474 42.6749 11.474C42.6755 11.474 42.6762 11.474 42.6769 11.474C42.6776 11.474 42.6782 11.474 42.6789 11.474C42.6796 11.474 42.6803 11.474 42.6809 11.474C42.6816 11.474 42.6823 11.474 42.683 11.474C42.6836 11.474 42.6843 11.474 42.685 11.474C42.6857 11.474 42.6863 11.474 42.687 11.474C42.6877 11.474 42.6884 11.474 42.689 11.474C42.6897 11.474 42.6904 11.474 42.6911 11.474C42.6917 11.474 42.6924 11.474 42.6931 11.474C42.6937 11.474 42.6944 11.474 42.6951 11.474C42.6958 11.474 42.6964 11.474 42.6971 11.474C42.6978 11.474 42.6984 11.474 42.6991 11.474C42.6998 11.474 42.7005 11.474 42.7011 11.474C42.7018 11.474 42.7025 11.474 42.7031 11.474C42.7038 11.474 42.7045 11.474 42.7052 11.474C42.7058 11.474 42.7065 11.474 42.7072 11.474C42.7078 11.474 42.7085 11.474 42.7092 11.474C42.7098 11.474 42.7105 11.474 42.7112 11.474C42.7118 11.474 42.7125 11.474 42.7132 11.474C42.7138 11.474 42.7145 11.474 42.7152 11.474C42.7158 11.474 42.7165 11.474 42.7172 11.474C42.7178 11.474 42.7185 11.474 42.7192 11.474C42.7198 11.474 42.7205 11.474 42.7212 11.474C42.7218 11.474 42.7225 11.474 42.7232 11.474C42.7238 11.474 42.7245 11.474 42.7252 11.474C42.7258 11.474 42.7265 11.474 42.7271 11.474C42.7278 11.474 42.7285 11.474 42.7291 11.474C42.7298 11.474 42.7305 11.474 42.7311 11.474C42.7318 11.474 42.7325 11.474 42.7331 11.474C42.7338 11.474 42.7344 11.474 42.7351 11.474C42.7358 11.474 42.7364 11.474 42.7371 11.474C42.7378 11.474 42.7384 11.474 42.7391 11.474C42.7397 11.474 42.7404 11.474 42.7411 11.474C42.7417 11.474 42.7424 11.474 42.743 11.474C42.7437 11.474 42.7444 11.474 42.745 11.474C42.7457 11.474 42.7463 11.474 42.747 11.474C42.7477 11.474 42.7483 11.474 42.749 11.474C42.7496 11.474 42.7503 11.474 42.7509 11.474C42.7516 11.474 42.7523 11.474 42.7529 11.474C42.7536 11.474 42.7542 11.474 42.7549 11.474C42.7555 11.474 42.7562 11.474 42.7569 11.474C42.7575 11.474 42.7582 11.474 42.7588 11.474C42.7595 11.474 42.7601 11.474 42.7608 11.474C42.7614 11.474 42.7621 11.474 42.7628 11.474C42.7634 11.474 42.7641 11.474 42.7647 11.474C42.7654 11.474 42.766 11.474 42.7667 11.474C42.7673 11.474 42.768 11.474 42.7686 11.474C42.7693 11.474 42.7699 11.474 42.7706 11.474C42.7713 11.474 42.7719 11.474 42.7726 11.474C42.7732 11.474 42.7739 11.474 42.7745 11.474C42.7752 11.474 42.7758 11.474 42.7765 11.474C42.7771 11.474 42.7778 11.474 42.7784 11.474C42.7791 11.474 42.7797 11.474 42.7804 11.474C42.781 11.474 42.7817 11.474 42.7823 11.474C42.783 11.474 42.7836 11.474 42.7843 11.474C42.7849 11.474 42.7856 11.474 42.7862 11.474C42.7869 11.474 42.7875 11.474 42.7882 11.474C42.7888 11.474 42.7895 11.474 42.7901 11.474C42.7908 11.474 42.7914 11.474 42.792 11.474C42.7927 11.474 42.7933 11.474 42.794 11.474C42.7946 11.474 42.7953 11.474 42.7959 11.474C42.7966 11.474 42.7972 11.474 42.7979 11.474C42.7985 11.474 42.7992 11.474 42.7998 11.474C42.8004 11.474 42.8011 11.474 42.8017 11.474C42.8024 11.474 42.803 11.474 42.8037 11.474C42.8043 11.474 42.805 11.474 42.8056 11.474C42.8062 11.474 42.8069 11.474 42.8075 11.474C42.8082 11.474 42.8088 11.474 42.8095 11.474C42.8101 11.474 42.8107 11.474 42.8114 11.474C42.812 11.474 42.8127 11.474 42.8133 11.474C42.814 11.474 42.8146 11.474 42.8152 11.474C42.8159 11.474 42.8165 11.474 42.8172 11.474C42.8178 11.474 42.8184 11.474 42.8191 11.474C42.8197 11.474 42.8204 11.474 42.821 11.474C42.8216 11.474 42.8223 11.474 42.8229 11.474C42.8236 11.474 42.8242 11.474 42.8248 11.474C42.8255 11.474 42.8261 11.474 42.8268 11.474C42.8274 11.474 42.828 11.474 42.8287 11.474C42.8293 11.474 42.8299 11.474 42.8306 11.474C42.8312 11.474 42.8319 11.474 42.8325 11.474C42.8331 11.474 42.8338 11.474 42.8344 11.474C42.835 11.474 42.8357 11.474 42.8363 11.474C42.8369 11.474 42.8376 11.474 42.8382 11.474C42.8388 11.474 42.8395 11.474 42.8401 11.474C42.8408 11.474 42.8414 11.474 42.842 11.474C42.8427 11.474 42.8433 11.474 42.8439 11.474C42.8446 11.474 42.8452 11.474 42.8458 11.474C42.8465 11.474 42.8471 11.474 42.8477 11.474C42.8484 11.474 42.849 11.474 42.8496 11.474C42.8503 11.474 42.8509 11.474 42.8515 11.474C42.8521 11.474 42.8528 11.474 42.8534 11.474C42.854 11.474 42.8547 11.474 42.8553 11.474C42.8559 11.474 42.8566 11.474 42.8572 11.474C42.8578 11.474 42.8585 11.474 42.8591 11.474C42.8597 11.474 42.8603 11.474 42.861 11.474C42.8616 11.474 42.8622 11.474 42.8629 11.474C42.8635 11.474 42.8641 11.474 42.8647 11.474C42.8654 11.474 42.866 11.474 42.8666 11.474C42.8673 11.474 42.8679 11.474 42.8685 11.474C42.8691 11.474 42.8698 11.474 42.8704 11.474C42.871 11.474 42.8716 11.474 42.8723 11.474C42.8729 11.474 42.8735 11.474 42.8741 11.474C42.8748 11.474 42.8754 11.474 42.876 11.474C42.8766 11.474 42.8773 11.474 42.8779 11.474C42.8785 11.474 42.8791 11.474 42.8798 11.474C42.8804 11.474 42.881 11.474 42.8816 11.474C42.8823 11.474 42.8829 11.474 42.8835 11.474C42.8841 11.474 42.8848 11.474 42.8854 11.474C42.886 11.474 42.8866 11.474 42.8872 11.474C42.8879 11.474 42.8885 11.474 42.8891 11.474C42.8897 11.474 42.8904 11.474 42.891 11.474C42.8916 11.474 42.8922 11.474 42.8928 11.474C42.8935 11.474 42.8941 11.474 42.8947 11.474C42.8953 11.474 42.8959 11.474 42.8966 11.474C42.8972 11.474 42.8978 11.474 42.8984 11.474C42.899 11.474 42.8997 11.474 42.9003 11.474C42.9009 11.474 42.9015 11.474 42.9021 11.474C42.9027 11.474 42.9034 11.474 42.904 11.474C42.9046 11.474 42.9052 11.474 42.9058 11.474C42.9064 11.474 42.9071 11.474 42.9077 11.474C42.9083 11.474 42.9089 11.474 42.9095 11.474C42.9101 11.474 42.9108 11.474 42.9114 11.474C42.912 11.474 42.9126 11.474 42.9132 11.474C42.9138 11.474 42.9145 11.474 42.9151 11.474C42.9157 11.474 42.9163 11.474 42.9169 11.474C42.9175 11.474 42.9181 11.474 42.9188 11.474C42.9194 11.474 42.92 11.474 42.9206 11.474C42.9212 11.474 42.9218 11.474 42.9224 11.474C42.923 11.474 42.9237 11.474 42.9243 11.474C42.9249 11.474 42.9255 11.474 42.9261 11.474C42.9267 11.474 42.9273 11.474 42.9279 11.474C42.9285 11.474 42.9292 11.474 42.9298 11.474C42.9304 11.474 42.931 11.474 42.9316 11.474C42.9322 11.474 42.9328 11.474 42.9334 11.474C42.934 11.474 42.9346 11.474 42.9353 11.474C42.9359 11.474 42.9365 11.474 42.9371 11.474C42.9377 11.474 42.9383 11.474 42.9389 11.474C42.9395 11.474 42.9401 11.474 42.9407 11.474C42.9413 11.474 42.9419 11.474 42.9426 11.474C42.9432 11.474 42.9438 11.474 42.9444 11.474C42.945 11.474 42.9456 11.474 42.9462 11.474C42.9468 11.474 42.9474 11.474 42.948 11.474C42.9486 11.474 42.9492 11.474 42.9498 11.474C42.9504 11.474 42.951 11.474 42.9516 11.474C42.9522 11.474 42.9528 11.474 42.9534 11.474C42.9541 11.474 42.9547 11.474 42.9553 11.474C42.9559 11.474 42.9565 11.474 42.9571 11.474C42.9577 11.474 42.9583 11.474 42.9589 11.474C42.9595 11.474 42.9601 11.474 42.9607 11.474C42.9613 11.474 42.9619 11.474 42.9625 11.474C42.9631 11.474 42.9637 11.474 42.9643 11.474C42.9649 11.474 42.9655 11.474 42.9661 11.474C42.9667 11.474 42.9673 11.474 42.9679 11.474C42.9685 11.474 42.9691 11.474 42.9697 11.474C42.9703 11.474 42.9709 11.474 42.9715 11.474C42.9721 11.474 42.9727 11.474 42.9733 11.474C42.9739 11.474 42.9745 11.474 42.9751 11.474C42.9757 11.474 42.9763 11.474 42.9769 11.474C42.9775 11.474 42.9781 11.474 42.9787 11.474C42.9793 11.474 42.9799 11.474 42.9805 11.474C42.9811 11.474 42.9816 11.474 42.9822 11.474C42.9828 11.474 42.9834 11.474 42.984 11.474C42.9846 11.474 42.9852 11.474 42.9858 11.474C42.9864 11.474 42.987 11.474 42.9876 11.474C42.9882 11.474 42.9888 11.474 42.9894 11.474C42.99 11.474 42.9906 11.474 42.9912 11.474C42.9918 11.474 42.9923 11.474 42.9929 11.474C42.9935 11.474 42.9941 11.474 42.9947 11.474C42.9953 11.474 42.9959 11.474 42.9965 11.474C42.9971 11.474 42.9977 11.474 42.9983 11.474C42.9989 11.474 42.9995 11.474 43 11.474C43.0006 11.474 43.0012 11.474 43.0018 11.474C43.0024 11.474 43.003 11.474 43.0036 11.474C43.0042 11.474 43.0048 11.474 43.0054 11.474C43.0059 11.474 43.0065 11.474 43.0071 11.474C43.0077 11.474 43.0083 11.474 43.0089 11.474C43.0095 11.474 43.0101 11.474 43.0107 11.474C43.0112 11.474 43.0118 11.474 43.0124 11.474C43.013 11.474 43.0136 11.474 43.0142 11.474C43.0148 11.474 43.0154 11.474 43.0159 11.474C43.0165 11.474 43.0171 11.474 43.0177 11.474C43.0183 11.474 43.0189 11.474 43.0195 11.474C43.02 11.474 43.0206 11.474 43.0212 11.474C43.0218 11.474 43.0224 11.474 43.023 11.474C43.0235 11.474 43.0241 11.474 43.0247 11.474C43.0253 11.474 43.0259 11.474 43.0265 11.474C43.027 11.474 43.0276 11.474 43.0282 11.474C43.0288 11.474 43.0294 11.474 43.03 11.474C43.0305 11.474 43.0311 11.474 43.0317 11.474C43.0323 11.474 43.0329 11.474 43.0334 11.474C43.034 11.474 43.0346 11.474 43.0352 11.474C43.0358 11.474 43.0364 11.474 43.0369 11.474C43.0375 11.474 43.0381 11.474 43.0387 11.474C43.0393 11.474 43.0398 11.474 43.0404 11.474C43.041 11.474 43.0416 11.474 43.0421 11.474C43.0427 11.474 43.0433 11.474 43.0439 11.474C43.0445 11.474 43.045 11.474 43.0456 11.474C43.0462 11.474 43.0468 11.474 43.0474 11.474C43.0479 11.474 43.0485 11.474 43.0491 11.474C43.0497 11.474 43.0502 11.474 43.0508 11.474C43.0514 11.474 43.052 11.474 43.0525 11.474C43.0531 11.474 43.0537 11.474 43.0543 11.474C43.0548 11.474 43.0554 11.474 43.056 11.474C43.0566 11.474 43.0571 11.474 43.0577 11.474C43.0583 11.474 43.0589 11.474 43.0594 11.474C43.06 11.474 43.0606 11.474 43.0612 11.474C43.0617 11.474 43.0623 11.474 43.0629 11.474C43.0634 11.474 43.064 11.474 43.0646 11.474C43.0652 11.474 43.0657 11.474 43.0663 11.474C43.0669 11.474 43.0675 11.474 43.068 11.474C43.0686 11.474 43.0692 11.474 43.0697 11.474C43.0703 11.474 43.0709 11.474 43.0714 11.474C43.072 11.474 43.0726 11.474 43.0732 11.474C43.0737 11.474 43.0743 11.474 43.0749 11.474C43.0754 11.474 43.076 11.474 43.0766 11.474C43.0771 11.474 43.0777 11.474 43.0783 11.474C43.0788 11.474 43.0794 11.474 43.08 11.474C43.0805 11.474 43.0811 11.474 43.0817 11.474C43.0823 11.474 43.0828 11.474 43.0834 11.474C43.084 11.474 43.0845 11.474 43.0851 11.474C43.0856 11.474 43.0862 11.474 43.0868 11.474C43.0873 11.474 43.0879 11.474 43.0885 11.474C43.089 11.474 43.0896 11.474 43.0902 11.474C43.0907 11.474 43.0913 11.474 43.0919 11.474C43.0924 11.474 43.093 11.474 43.0936 11.474C43.0941 11.474 43.0947 11.474 43.0952 11.474C43.0958 11.474 43.0964 11.474 43.0969 11.474C43.0975 11.474 43.0981 11.474 43.0986 11.474C43.0992 11.474 43.0997 11.474 43.1003 11.474C43.1009 11.474 43.1014 11.474 43.102 11.474C43.1026 11.474 43.1031 11.474 43.1037 11.474C43.1042 11.474 43.1048 11.474 43.1054 11.474C43.1059 11.474 43.1065 11.474 43.107 11.474C43.1076 11.474 43.1082 11.474 43.1087 11.474C43.1093 11.474 43.1098 11.474 43.1104 11.474C43.111 11.474 43.1115 11.474 43.1121 11.474C43.1126 11.474 43.1132 11.474 43.1137 11.474C43.1143 11.474 43.1149 11.474 43.1154 11.474C43.116 11.474 43.1165 11.474 43.1171 11.474C43.1176 11.474 43.1182 11.474 43.1188 11.474C43.1193 11.474 43.1199 11.474 43.1204 11.474C43.121 11.474 43.1215 11.474 43.1221 11.474C43.1226 11.474 43.1232 11.474 43.1237 11.474C43.1243 11.474 43.1249 11.474 43.1254 11.474C43.126 11.474 43.1265 11.474 43.1271 11.474C43.1276 11.474 43.1282 11.474 43.1287 11.474C43.1293 11.474 43.1298 11.474 43.1304 11.474C43.1309 11.474 43.1315 11.474 43.132 11.474C43.1326 11.474 43.1332 11.474 43.1337 11.474C43.1343 11.474 43.1348 11.474 43.1354 11.474C43.1359 11.474 43.1365 11.474 43.137 11.474C43.1376 11.474 43.1381 11.474 43.1387 11.474C43.1392 11.474 43.1398 11.474 43.1403 11.474C43.1409 11.474 43.1414 11.474 43.142 11.474C43.1425 11.474 43.1431 11.474 43.1436 11.474C43.1442 11.474 43.1447 11.474 43.1452 11.474C43.1458 11.474 43.1463 11.474 43.1469 11.474C43.1474 11.474 43.148 11.474 43.1485 11.474C43.1491 11.474 43.1496 11.474 43.1502 11.474C43.1507 11.474 43.1513 11.474 43.1518 11.474C43.1524 11.474 43.1529 11.474 43.1535 11.474C43.154 11.474 43.1545 11.474 43.1551 11.474C43.1556 11.474 43.1562 11.474 43.1567 11.474C43.1573 11.474 43.1578 11.474 43.1584 11.474C43.1589 11.474 43.1594 11.474 43.16 11.474C43.1605 11.474 43.1611 11.474 43.1616 11.474C43.1622 11.474 43.1627 11.474 43.1632 11.474C43.1638 11.474 43.1643 11.474 43.1649 11.474C43.1654 11.474 43.166 11.474 43.1665 11.474C43.167 11.474 43.1676 11.474 43.1681 11.474C43.1687 11.474 43.1692 11.474 43.1697 11.474C43.1703 11.474 43.1708 11.474 43.1714 11.474C43.1719 11.474 43.1724 11.474 43.173 11.474C43.1735 11.474 43.1741 11.474 43.1746 11.474C43.1751 11.474 43.1757 11.474 43.1762 11.474C43.1768 11.474 43.1773 11.474 43.1778 11.474C43.1784 11.474 43.1789 11.474 43.1794 11.474C43.18 11.474 43.1805 11.474 43.1811 11.474C43.1816 11.474 43.1821 11.474 43.1827 11.474C43.1832 11.474 43.1837 11.474 43.1843 11.474C43.1848 11.474 43.1853 11.474 43.1859 11.474C43.1864 11.474 43.187 11.474 43.1875 11.474C43.188 11.474 43.1886 11.474 43.1891 11.474C43.1896 11.474 43.1902 11.474 43.1907 11.474C43.1912 11.474 43.1918 11.474 43.1923 11.474C43.1928 11.474 43.1934 11.474 43.1939 11.474C43.1944 11.474 43.195 11.474 43.1955 11.474C43.196 11.474 43.1966 11.474 43.1971 11.474C43.1976 11.474 43.1982 11.474 43.1987 11.474C43.1992 11.474 43.1997 11.474 43.2003 11.474C43.2008 11.474 43.2013 11.474 43.2019 11.474C43.2024 11.474 43.2029 11.474 43.2035 11.474C43.204 11.474 43.2045 11.474 43.205 11.474C43.2056 11.474 43.2061 11.474 43.2066 11.474C43.2072 11.474 43.2077 11.474 43.2082 11.474C43.2087 11.474 43.2093 11.474 43.2098 11.474C43.2103 11.474 43.2109 11.474 43.2114 11.474C43.2119 11.474 43.2124 11.474 43.213 11.474C43.2135 11.474 43.214 11.474 43.2146 11.474C43.2151 11.474 43.2156 11.474 43.2161 11.474C43.2167 11.474 43.2172 11.474 43.2177 11.474C43.2182 11.474 43.2188 11.474 43.2193 11.474C43.2198 11.474 43.2203 11.474 43.2209 11.474C43.2214 11.474 43.2219 11.474 43.2224 11.474C43.2229 11.474 43.2235 11.474 43.224 11.474C43.2245 11.474 43.225 11.474 43.2256 11.474C43.2261 11.474 43.2266 11.474 43.2271 11.474C43.2277 11.474 43.2282 11.474 43.2287 11.474C43.2292 11.474 43.2297 11.474 43.2303 11.474C43.2308 11.474 43.2313 11.474 43.2318 11.474C43.2323 11.474 43.2329 11.474 43.2334 11.474C43.2339 11.474 43.2344 11.474 43.235 11.474C43.2355 11.474 43.236 11.474 43.2365 11.474C43.237 11.474 43.2375 11.474 43.2381 11.474C43.2386 11.474 43.2391 11.474 43.2396 11.474C43.2401 11.474 43.2407 11.474 43.2412 11.474C43.2417 11.474 43.2422 11.474 43.2427 11.474C43.2432 11.474 43.2438 11.474 43.2443 11.474C43.2448 11.474 43.2453 11.474 43.2458 11.474C43.2463 11.474 43.2469 11.474 43.2474 11.474C43.2479 11.474 43.2484 11.474 43.2489 11.474C43.2494 11.474 43.25 11.474 43.2505 11.474C43.251 11.474 43.2515 11.474 43.252 11.474C43.2525 11.474 43.253 11.474 43.2536 11.474C43.2541 11.474 43.2546 11.474 43.2551 11.474C43.2556 11.474 43.2561 11.474 43.2566 11.474C43.2571 11.474 43.2577 11.474 43.2582 11.474C43.2587 11.474 43.2592 11.474 43.2597 11.474C43.2602 11.474 43.2607 11.474 43.2612 11.474C43.2618 11.474 43.2623 11.474 43.2628 11.474C43.2633 11.474 43.2638 11.474 43.2643 11.474C43.2648 11.474 43.2653 11.474 43.2658 11.474C43.2663 11.474 43.2669 11.474 43.2674 11.474C43.2679 11.474 43.2684 11.474 43.2689 11.474C43.2694 11.474 43.2699 11.474 43.2704 11.474C43.2709 11.474 43.2714 11.474 43.2719 11.474C43.2725 11.474 43.273 11.474 43.2735 11.474C43.274 11.474 43.2745 11.474 43.275 11.474C43.2755 11.474 43.276 11.474 43.2765 11.474C43.277 11.474 43.2775 11.474 43.278 11.474C43.2785 11.474 43.279 11.474 43.2795 11.474C43.28 11.474 43.2806 11.474 43.2811 11.474C43.2816 11.474 43.2821 11.474 43.2826 11.474C43.2831 11.474 43.2836 11.474 43.2841 11.474C43.2846 11.474 43.2851 11.474 43.2856 11.474C43.2861 11.474 43.2866 11.474 43.2871 11.474C43.2876 11.474 43.2881 11.474 43.2886 11.474C43.2891 11.474 43.2896 11.474 43.2901 11.474C43.2906 11.474 43.2911 11.474 43.2916 11.474C43.2921 11.474 43.2926 11.474 43.2931 11.474C43.2936 11.474 43.2941 11.474 43.2946 11.474C43.2951 11.474 43.2956 11.474 43.2961 11.474C43.2966 11.474 43.2971 11.474 43.2976 11.474C43.2981 11.474 43.2986 11.474 43.2991 11.474C43.2996 11.474 43.3001 11.474 43.3006 11.474C43.3011 11.474 43.3016 11.474 43.3021 11.474C43.3026 11.474 43.3031 11.474 43.3036 11.474C43.3041 11.474 43.3046 11.474 43.3051 11.474C43.3056 11.474 43.3061 11.474 43.3066 11.474C43.3071 11.474 43.3076 11.474 43.3081 11.474C43.3086 11.474 43.3091 11.474 43.3096 11.474C43.31 11.474 43.3105 11.474 43.311 11.474C43.3115 11.474 43.312 11.474 43.3125 11.474C43.313 11.474 43.3135 11.474 43.314 11.474C43.3145 11.474 43.315 11.474 43.3155 11.474C43.316 11.474 43.3165 11.474 43.317 11.474C43.3175 11.474 43.3179 11.474 43.3184 11.474C43.3189 11.474 43.3194 11.474 43.3199 11.474C43.3204 11.474 43.3209 11.474 43.3214 11.474C43.3219 11.474 43.3224 11.474 43.3229 11.474C43.3234 11.474 43.3238 11.474 43.3243 11.474C43.3248 11.474 43.3253 11.474 43.3258 11.474C43.3263 11.474 43.3268 11.474 43.3273 11.474C43.3278 11.474 43.3282 11.474 43.3287 11.474C43.3292 11.474 43.3297 11.474 43.3302 11.474C43.3307 11.474 43.3312 11.474 43.3317 11.474C43.3322 11.474 43.3326 11.474 43.3331 11.474C43.3336 11.474 43.3341 11.474 43.3346 11.474C43.3351 11.474 43.3356 11.474 43.336 11.474C43.3365 11.474 43.337 11.474 43.3375 11.474C43.338 11.474 43.3385 11.474 43.339 11.474C43.3394 11.474 43.3399 11.474 43.3404 11.474C43.3409 11.474 43.3414 11.474 43.3419 11.474C43.3424 11.474 43.3428 11.474 43.3433 11.474C43.3438 11.474 43.3443 11.474 43.3448 11.474C43.3453 11.474 43.3457 11.474 43.3462 11.474C43.3467 11.474 43.3472 11.474 43.3477 11.474C43.3481 11.474 43.3486 11.474 43.3491 11.474C43.3496 11.474 43.3501 11.474 43.3506 11.474C43.351 11.474 43.3515 11.474 43.352 11.474C43.3525 11.474 43.353 11.474 43.3534 11.474C43.3539 11.474 43.3544 11.474 43.3549 11.474C43.3554 11.474 43.3558 11.474 43.3563 11.474C43.3568 11.474 43.3573 11.474 43.3577 11.474C43.3582 11.474 43.3587 11.474 43.3592 11.474C43.3597 11.474 43.3601 11.474 43.3606 11.474C43.3611 11.474 43.3616 11.474 43.3621 11.474C43.3625 11.474 43.363 11.474 43.3635 11.474C43.364 11.474 43.3644 11.474 43.3649 11.474C43.3654 11.474 43.3659 11.474 43.3663 11.474C43.3668 11.474 43.3673 11.474 43.3678 11.474C43.3682 11.474 43.3687 11.474 43.3692 11.474C43.3697 11.474 43.3701 11.474 43.3706 11.474C43.3711 11.474 43.3716 11.474 43.372 11.474C43.3725 11.474 43.373 11.474 43.3735 11.474C43.3739 11.474 43.3744 11.474 43.3749 11.474C43.3753 11.474 43.3758 11.474 43.3763 11.474C43.3768 11.474 43.3772 11.474 43.3777 11.474C43.3782 11.474 43.3786 11.474 43.3791 11.474C43.3796 11.474 43.3801 11.474 43.3805 11.474C43.381 11.474 43.3815 11.474 43.3819 11.474C43.3824 11.474 43.3829 11.474 43.3833 11.474C43.3838 11.474 43.3843 11.474 43.3848 11.474C43.3852 11.474 43.3857 11.474 43.3862 11.474C43.3866 11.474 43.3871 11.474 43.3876 11.474C43.388 11.474 43.3885 11.474 43.389 11.474C43.3894 11.474 43.3899 11.474 43.3904 11.474C43.3908 11.474 43.3913 11.474 43.3918 11.474C43.3922 11.474 43.3927 11.474 43.3932 11.474C43.3936 11.474 43.3941 11.474 43.3946 11.474C43.395 11.474 43.3955 11.474 43.396 11.474C43.3964 11.474 43.3969 11.474 43.3974 11.474C43.3978 11.474 43.3983 11.474 43.3988 11.474C43.3992 11.474 43.3997 11.474 43.4001 11.474C43.4006 11.474 43.4011 11.474 43.4015 11.474C43.402 11.474 43.4025 11.474 43.4029 11.474C43.4034 11.474 43.4038 11.474 43.4043 11.474C43.4048 11.474 43.4052 11.474 43.4057 11.474C43.4062 11.474 43.4066 11.474 43.4071 11.474C43.4075 11.474 43.408 11.474 43.4085 11.474C43.4089 11.474 43.4094 11.474 43.4098 11.474C43.4103 11.474 43.4108 11.474 43.4112 11.474C43.4117 11.474 43.4121 11.474 43.4126 11.474C43.4131 11.474 43.4135 11.474 43.414 11.474C43.4144 11.474 43.4149 11.474 43.4153 11.474C43.4158 11.474 43.4163 11.474 43.4167 11.474C43.4172 11.474 43.4176 11.474 43.4181 11.474C43.4185 11.474 43.419 11.474 43.4195 11.474C43.4199 11.474 43.4204 11.474 43.4208 11.474C43.4213 11.474 43.4217 11.474 43.4222 11.474C43.4226 11.474 43.4231 11.474 43.4236 11.474C43.424 11.474 43.4245 11.474 43.4249 11.474C43.4254 11.474 43.4258 11.474 43.4263 11.474C43.4267 11.474 43.4272 11.474 43.4276 11.474C43.4281 11.474 43.4286 11.474 43.429 11.474C43.4295 11.474 43.4299 11.474 43.4304 11.474C43.4308 11.474 43.4313 11.474 43.4317 11.474C43.4322 11.474 43.4326 11.474 43.4331 11.474C43.4335 11.474 43.434 11.474 43.4344 11.474C43.4349 11.474 43.4353 11.474 43.4358 11.474C43.4362 11.474 43.4367 11.474 43.4371 11.474C43.4376 11.474 43.438 11.474 43.4385 11.474C43.4389 11.474 43.4394 11.474 43.4398 11.474C43.4403 11.474 43.4407 11.474 43.4412 11.474C43.4416 11.474 43.4421 11.474 43.4425 11.474C43.443 11.474 43.4434 11.474 43.4439 11.474C43.4443 11.474 43.4448 11.474 43.4452 11.474C43.4456 11.474 43.4461 11.474 43.4465 11.474C43.447 11.474 43.4474 11.474 43.4479 11.474C43.4483 11.474 43.4488 11.474 43.4492 11.474V11.224V10.974C43.4488 10.974 43.4483 10.974 43.4479 10.974C43.4474 10.974 43.447 10.974 43.4465 10.974C43.4461 10.974 43.4456 10.974 43.4452 10.974C43.4448 10.974 43.4443 10.974 43.4439 10.974C43.4434 10.974 43.443 10.974 43.4425 10.974C43.4421 10.974 43.4416 10.974 43.4412 10.974C43.4407 10.974 43.4403 10.974 43.4398 10.974C43.4394 10.974 43.4389 10.974 43.4385 10.974C43.438 10.974 43.4376 10.974 43.4371 10.974C43.4367 10.974 43.4362 10.974 43.4358 10.974C43.4353 10.974 43.4349 10.974 43.4344 10.974C43.434 10.974 43.4335 10.974 43.4331 10.974C43.4326 10.974 43.4322 10.974 43.4317 10.974C43.4313 10.974 43.4308 10.974 43.4304 10.974C43.4299 10.974 43.4295 10.974 43.429 10.974C43.4286 10.974 43.4281 10.974 43.4276 10.974C43.4272 10.974 43.4267 10.974 43.4263 10.974C43.4258 10.974 43.4254 10.974 43.4249 10.974C43.4245 10.974 43.424 10.974 43.4236 10.974C43.4231 10.974 43.4226 10.974 43.4222 10.974C43.4217 10.974 43.4213 10.974 43.4208 10.974C43.4204 10.974 43.4199 10.974 43.4195 10.974C43.419 10.974 43.4185 10.974 43.4181 10.974C43.4176 10.974 43.4172 10.974 43.4167 10.974C43.4163 10.974 43.4158 10.974 43.4153 10.974C43.4149 10.974 43.4144 10.974 43.414 10.974C43.4135 10.974 43.4131 10.974 43.4126 10.974C43.4121 10.974 43.4117 10.974 43.4112 10.974C43.4108 10.974 43.4103 10.974 43.4098 10.974C43.4094 10.974 43.4089 10.974 43.4085 10.974C43.408 10.974 43.4075 10.974 43.4071 10.974C43.4066 10.974 43.4062 10.974 43.4057 10.974C43.4052 10.974 43.4048 10.974 43.4043 10.974C43.4038 10.974 43.4034 10.974 43.4029 10.974C43.4025 10.974 43.402 10.974 43.4015 10.974C43.4011 10.974 43.4006 10.974 43.4001 10.974C43.3997 10.974 43.3992 10.974 43.3988 10.974C43.3983 10.974 43.3978 10.974 43.3974 10.974C43.3969 10.974 43.3964 10.974 43.396 10.974C43.3955 10.974 43.395 10.974 43.3946 10.974C43.3941 10.974 43.3936 10.974 43.3932 10.974C43.3927 10.974 43.3922 10.974 43.3918 10.974C43.3913 10.974 43.3908 10.974 43.3904 10.974C43.3899 10.974 43.3894 10.974 43.389 10.974C43.3885 10.974 43.388 10.974 43.3876 10.974C43.3871 10.974 43.3866 10.974 43.3862 10.974C43.3857 10.974 43.3852 10.974 43.3848 10.974C43.3843 10.974 43.3838 10.974 43.3833 10.974C43.3829 10.974 43.3824 10.974 43.3819 10.974C43.3815 10.974 43.381 10.974 43.3805 10.974C43.3801 10.974 43.3796 10.974 43.3791 10.974C43.3786 10.974 43.3782 10.974 43.3777 10.974C43.3772 10.974 43.3768 10.974 43.3763 10.974C43.3758 10.974 43.3753 10.974 43.3749 10.974C43.3744 10.974 43.3739 10.974 43.3735 10.974C43.373 10.974 43.3725 10.974 43.372 10.974C43.3716 10.974 43.3711 10.974 43.3706 10.974C43.3701 10.974 43.3697 10.974 43.3692 10.974C43.3687 10.974 43.3682 10.974 43.3678 10.974C43.3673 10.974 43.3668 10.974 43.3663 10.974C43.3659 10.974 43.3654 10.974 43.3649 10.974C43.3644 10.974 43.364 10.974 43.3635 10.974C43.363 10.974 43.3625 10.974 43.3621 10.974C43.3616 10.974 43.3611 10.974 43.3606 10.974C43.3601 10.974 43.3597 10.974 43.3592 10.974C43.3587 10.974 43.3582 10.974 43.3577 10.974C43.3573 10.974 43.3568 10.974 43.3563 10.974C43.3558 10.974 43.3554 10.974 43.3549 10.974C43.3544 10.974 43.3539 10.974 43.3534 10.974C43.353 10.974 43.3525 10.974 43.352 10.974C43.3515 10.974 43.351 10.974 43.3506 10.974C43.3501 10.974 43.3496 10.974 43.3491 10.974C43.3486 10.974 43.3481 10.974 43.3477 10.974C43.3472 10.974 43.3467 10.974 43.3462 10.974C43.3457 10.974 43.3453 10.974 43.3448 10.974C43.3443 10.974 43.3438 10.974 43.3433 10.974C43.3428 10.974 43.3424 10.974 43.3419 10.974C43.3414 10.974 43.3409 10.974 43.3404 10.974C43.3399 10.974 43.3394 10.974 43.339 10.974C43.3385 10.974 43.338 10.974 43.3375 10.974C43.337 10.974 43.3365 10.974 43.336 10.974C43.3356 10.974 43.3351 10.974 43.3346 10.974C43.3341 10.974 43.3336 10.974 43.3331 10.974C43.3326 10.974 43.3322 10.974 43.3317 10.974C43.3312 10.974 43.3307 10.974 43.3302 10.974C43.3297 10.974 43.3292 10.974 43.3287 10.974C43.3282 10.974 43.3278 10.974 43.3273 10.974C43.3268 10.974 43.3263 10.974 43.3258 10.974C43.3253 10.974 43.3248 10.974 43.3243 10.974C43.3238 10.974 43.3234 10.974 43.3229 10.974C43.3224 10.974 43.3219 10.974 43.3214 10.974C43.3209 10.974 43.3204 10.974 43.3199 10.974C43.3194 10.974 43.3189 10.974 43.3184 10.974C43.3179 10.974 43.3175 10.974 43.317 10.974C43.3165 10.974 43.316 10.974 43.3155 10.974C43.315 10.974 43.3145 10.974 43.314 10.974C43.3135 10.974 43.313 10.974 43.3125 10.974C43.312 10.974 43.3115 10.974 43.311 10.974C43.3105 10.974 43.31 10.974 43.3096 10.974C43.3091 10.974 43.3086 10.974 43.3081 10.974C43.3076 10.974 43.3071 10.974 43.3066 10.974C43.3061 10.974 43.3056 10.974 43.3051 10.974C43.3046 10.974 43.3041 10.974 43.3036 10.974C43.3031 10.974 43.3026 10.974 43.3021 10.974C43.3016 10.974 43.3011 10.974 43.3006 10.974C43.3001 10.974 43.2996 10.974 43.2991 10.974C43.2986 10.974 43.2981 10.974 43.2976 10.974C43.2971 10.974 43.2966 10.974 43.2961 10.974C43.2956 10.974 43.2951 10.974 43.2946 10.974C43.2941 10.974 43.2936 10.974 43.2931 10.974C43.2926 10.974 43.2921 10.974 43.2916 10.974C43.2911 10.974 43.2906 10.974 43.2901 10.974C43.2896 10.974 43.2891 10.974 43.2886 10.974C43.2881 10.974 43.2876 10.974 43.2871 10.974C43.2866 10.974 43.2861 10.974 43.2856 10.974C43.2851 10.974 43.2846 10.974 43.2841 10.974C43.2836 10.974 43.2831 10.974 43.2826 10.974C43.2821 10.974 43.2816 10.974 43.2811 10.974C43.2806 10.974 43.28 10.974 43.2795 10.974C43.279 10.974 43.2785 10.974 43.278 10.974C43.2775 10.974 43.277 10.974 43.2765 10.974C43.276 10.974 43.2755 10.974 43.275 10.974C43.2745 10.974 43.274 10.974 43.2735 10.974C43.273 10.974 43.2725 10.974 43.2719 10.974C43.2714 10.974 43.2709 10.974 43.2704 10.974C43.2699 10.974 43.2694 10.974 43.2689 10.974C43.2684 10.974 43.2679 10.974 43.2674 10.974C43.2669 10.974 43.2663 10.974 43.2658 10.974C43.2653 10.974 43.2648 10.974 43.2643 10.974C43.2638 10.974 43.2633 10.974 43.2628 10.974C43.2623 10.974 43.2618 10.974 43.2612 10.974C43.2607 10.974 43.2602 10.974 43.2597 10.974C43.2592 10.974 43.2587 10.974 43.2582 10.974C43.2577 10.974 43.2571 10.974 43.2566 10.974C43.2561 10.974 43.2556 10.974 43.2551 10.974C43.2546 10.974 43.2541 10.974 43.2536 10.974C43.253 10.974 43.2525 10.974 43.252 10.974C43.2515 10.974 43.251 10.974 43.2505 10.974C43.25 10.974 43.2494 10.974 43.2489 10.974C43.2484 10.974 43.2479 10.974 43.2474 10.974C43.2469 10.974 43.2463 10.974 43.2458 10.974C43.2453 10.974 43.2448 10.974 43.2443 10.974C43.2438 10.974 43.2432 10.974 43.2427 10.974C43.2422 10.974 43.2417 10.974 43.2412 10.974C43.2407 10.974 43.2401 10.974 43.2396 10.974C43.2391 10.974 43.2386 10.974 43.2381 10.974C43.2375 10.974 43.237 10.974 43.2365 10.974C43.236 10.974 43.2355 10.974 43.235 10.974C43.2344 10.974 43.2339 10.974 43.2334 10.974C43.2329 10.974 43.2323 10.974 43.2318 10.974C43.2313 10.974 43.2308 10.974 43.2303 10.974C43.2297 10.974 43.2292 10.974 43.2287 10.974C43.2282 10.974 43.2277 10.974 43.2271 10.974C43.2266 10.974 43.2261 10.974 43.2256 10.974C43.225 10.974 43.2245 10.974 43.224 10.974C43.2235 10.974 43.2229 10.974 43.2224 10.974C43.2219 10.974 43.2214 10.974 43.2209 10.974C43.2203 10.974 43.2198 10.974 43.2193 10.974C43.2188 10.974 43.2182 10.974 43.2177 10.974C43.2172 10.974 43.2167 10.974 43.2161 10.974C43.2156 10.974 43.2151 10.974 43.2146 10.974C43.214 10.974 43.2135 10.974 43.213 10.974C43.2124 10.974 43.2119 10.974 43.2114 10.974C43.2109 10.974 43.2103 10.974 43.2098 10.974C43.2093 10.974 43.2087 10.974 43.2082 10.974C43.2077 10.974 43.2072 10.974 43.2066 10.974C43.2061 10.974 43.2056 10.974 43.205 10.974C43.2045 10.974 43.204 10.974 43.2035 10.974C43.2029 10.974 43.2024 10.974 43.2019 10.974C43.2013 10.974 43.2008 10.974 43.2003 10.974C43.1997 10.974 43.1992 10.974 43.1987 10.974C43.1982 10.974 43.1976 10.974 43.1971 10.974C43.1966 10.974 43.196 10.974 43.1955 10.974C43.195 10.974 43.1944 10.974 43.1939 10.974C43.1934 10.974 43.1928 10.974 43.1923 10.974C43.1918 10.974 43.1912 10.974 43.1907 10.974C43.1902 10.974 43.1896 10.974 43.1891 10.974C43.1886 10.974 43.188 10.974 43.1875 10.974C43.187 10.974 43.1864 10.974 43.1859 10.974C43.1853 10.974 43.1848 10.974 43.1843 10.974C43.1837 10.974 43.1832 10.974 43.1827 10.974C43.1821 10.974 43.1816 10.974 43.1811 10.974C43.1805 10.974 43.18 10.974 43.1794 10.974C43.1789 10.974 43.1784 10.974 43.1778 10.974C43.1773 10.974 43.1768 10.974 43.1762 10.974C43.1757 10.974 43.1751 10.974 43.1746 10.974C43.1741 10.974 43.1735 10.974 43.173 10.974C43.1724 10.974 43.1719 10.974 43.1714 10.974C43.1708 10.974 43.1703 10.974 43.1697 10.974C43.1692 10.974 43.1687 10.974 43.1681 10.974C43.1676 10.974 43.167 10.974 43.1665 10.974C43.166 10.974 43.1654 10.974 43.1649 10.974C43.1643 10.974 43.1638 10.974 43.1632 10.974C43.1627 10.974 43.1622 10.974 43.1616 10.974C43.1611 10.974 43.1605 10.974 43.16 10.974C43.1594 10.974 43.1589 10.974 43.1584 10.974C43.1578 10.974 43.1573 10.974 43.1567 10.974C43.1562 10.974 43.1556 10.974 43.1551 10.974C43.1545 10.974 43.154 10.974 43.1535 10.974C43.1529 10.974 43.1524 10.974 43.1518 10.974C43.1513 10.974 43.1507 10.974 43.1502 10.974C43.1496 10.974 43.1491 10.974 43.1485 10.974C43.148 10.974 43.1474 10.974 43.1469 10.974C43.1463 10.974 43.1458 10.974 43.1452 10.974C43.1447 10.974 43.1442 10.974 43.1436 10.974C43.1431 10.974 43.1425 10.974 43.142 10.974C43.1414 10.974 43.1409 10.974 43.1403 10.974C43.1398 10.974 43.1392 10.974 43.1387 10.974C43.1381 10.974 43.1376 10.974 43.137 10.974C43.1365 10.974 43.1359 10.974 43.1354 10.974C43.1348 10.974 43.1343 10.974 43.1337 10.974C43.1332 10.974 43.1326 10.974 43.132 10.974C43.1315 10.974 43.1309 10.974 43.1304 10.974C43.1298 10.974 43.1293 10.974 43.1287 10.974C43.1282 10.974 43.1276 10.974 43.1271 10.974C43.1265 10.974 43.126 10.974 43.1254 10.974C43.1249 10.974 43.1243 10.974 43.1237 10.974C43.1232 10.974 43.1226 10.974 43.1221 10.974C43.1215 10.974 43.121 10.974 43.1204 10.974C43.1199 10.974 43.1193 10.974 43.1188 10.974C43.1182 10.974 43.1176 10.974 43.1171 10.974C43.1165 10.974 43.116 10.974 43.1154 10.974C43.1149 10.974 43.1143 10.974 43.1137 10.974C43.1132 10.974 43.1126 10.974 43.1121 10.974C43.1115 10.974 43.111 10.974 43.1104 10.974C43.1098 10.974 43.1093 10.974 43.1087 10.974C43.1082 10.974 43.1076 10.974 43.107 10.974C43.1065 10.974 43.1059 10.974 43.1054 10.974C43.1048 10.974 43.1042 10.974 43.1037 10.974C43.1031 10.974 43.1026 10.974 43.102 10.974C43.1014 10.974 43.1009 10.974 43.1003 10.974C43.0997 10.974 43.0992 10.974 43.0986 10.974C43.0981 10.974 43.0975 10.974 43.0969 10.974C43.0964 10.974 43.0958 10.974 43.0952 10.974C43.0947 10.974 43.0941 10.974 43.0936 10.974C43.093 10.974 43.0924 10.974 43.0919 10.974C43.0913 10.974 43.0907 10.974 43.0902 10.974C43.0896 10.974 43.089 10.974 43.0885 10.974C43.0879 10.974 43.0873 10.974 43.0868 10.974C43.0862 10.974 43.0856 10.974 43.0851 10.974C43.0845 10.974 43.084 10.974 43.0834 10.974C43.0828 10.974 43.0823 10.974 43.0817 10.974C43.0811 10.974 43.0805 10.974 43.08 10.974C43.0794 10.974 43.0788 10.974 43.0783 10.974C43.0777 10.974 43.0771 10.974 43.0766 10.974C43.076 10.974 43.0754 10.974 43.0749 10.974C43.0743 10.974 43.0737 10.974 43.0732 10.974C43.0726 10.974 43.072 10.974 43.0714 10.974C43.0709 10.974 43.0703 10.974 43.0697 10.974C43.0692 10.974 43.0686 10.974 43.068 10.974C43.0675 10.974 43.0669 10.974 43.0663 10.974C43.0657 10.974 43.0652 10.974 43.0646 10.974C43.064 10.974 43.0634 10.974 43.0629 10.974C43.0623 10.974 43.0617 10.974 43.0612 10.974C43.0606 10.974 43.06 10.974 43.0594 10.974C43.0589 10.974 43.0583 10.974 43.0577 10.974C43.0571 10.974 43.0566 10.974 43.056 10.974C43.0554 10.974 43.0548 10.974 43.0543 10.974C43.0537 10.974 43.0531 10.974 43.0525 10.974C43.052 10.974 43.0514 10.974 43.0508 10.974C43.0502 10.974 43.0497 10.974 43.0491 10.974C43.0485 10.974 43.0479 10.974 43.0474 10.974C43.0468 10.974 43.0462 10.974 43.0456 10.974C43.045 10.974 43.0445 10.974 43.0439 10.974C43.0433 10.974 43.0427 10.974 43.0421 10.974C43.0416 10.974 43.041 10.974 43.0404 10.974C43.0398 10.974 43.0393 10.974 43.0387 10.974C43.0381 10.974 43.0375 10.974 43.0369 10.974C43.0364 10.974 43.0358 10.974 43.0352 10.974C43.0346 10.974 43.034 10.974 43.0334 10.974C43.0329 10.974 43.0323 10.974 43.0317 10.974C43.0311 10.974 43.0305 10.974 43.03 10.974C43.0294 10.974 43.0288 10.974 43.0282 10.974C43.0276 10.974 43.027 10.974 43.0265 10.974C43.0259 10.974 43.0253 10.974 43.0247 10.974C43.0241 10.974 43.0235 10.974 43.023 10.974C43.0224 10.974 43.0218 10.974 43.0212 10.974C43.0206 10.974 43.02 10.974 43.0195 10.974C43.0189 10.974 43.0183 10.974 43.0177 10.974C43.0171 10.974 43.0165 10.974 43.0159 10.974C43.0154 10.974 43.0148 10.974 43.0142 10.974C43.0136 10.974 43.013 10.974 43.0124 10.974C43.0118 10.974 43.0112 10.974 43.0107 10.974C43.0101 10.974 43.0095 10.974 43.0089 10.974C43.0083 10.974 43.0077 10.974 43.0071 10.974C43.0065 10.974 43.0059 10.974 43.0054 10.974C43.0048 10.974 43.0042 10.974 43.0036 10.974C43.003 10.974 43.0024 10.974 43.0018 10.974C43.0012 10.974 43.0006 10.974 43 10.974C42.9995 10.974 42.9989 10.974 42.9983 10.974C42.9977 10.974 42.9971 10.974 42.9965 10.974C42.9959 10.974 42.9953 10.974 42.9947 10.974C42.9941 10.974 42.9935 10.974 42.9929 10.974C42.9923 10.974 42.9918 10.974 42.9912 10.974C42.9906 10.974 42.99 10.974 42.9894 10.974C42.9888 10.974 42.9882 10.974 42.9876 10.974C42.987 10.974 42.9864 10.974 42.9858 10.974C42.9852 10.974 42.9846 10.974 42.984 10.974C42.9834 10.974 42.9828 10.974 42.9822 10.974C42.9816 10.974 42.9811 10.974 42.9805 10.974C42.9799 10.974 42.9793 10.974 42.9787 10.974C42.9781 10.974 42.9775 10.974 42.9769 10.974C42.9763 10.974 42.9757 10.974 42.9751 10.974C42.9745 10.974 42.9739 10.974 42.9733 10.974C42.9727 10.974 42.9721 10.974 42.9715 10.974C42.9709 10.974 42.9703 10.974 42.9697 10.974C42.9691 10.974 42.9685 10.974 42.9679 10.974C42.9673 10.974 42.9667 10.974 42.9661 10.974C42.9655 10.974 42.9649 10.974 42.9643 10.974C42.9637 10.974 42.9631 10.974 42.9625 10.974C42.9619 10.974 42.9613 10.974 42.9607 10.974C42.9601 10.974 42.9595 10.974 42.9589 10.974C42.9583 10.974 42.9577 10.974 42.9571 10.974C42.9565 10.974 42.9559 10.974 42.9553 10.974C42.9547 10.974 42.9541 10.974 42.9534 10.974C42.9528 10.974 42.9522 10.974 42.9516 10.974C42.951 10.974 42.9504 10.974 42.9498 10.974C42.9492 10.974 42.9486 10.974 42.948 10.974C42.9474 10.974 42.9468 10.974 42.9462 10.974C42.9456 10.974 42.945 10.974 42.9444 10.974C42.9438 10.974 42.9432 10.974 42.9426 10.974C42.9419 10.974 42.9413 10.974 42.9407 10.974C42.9401 10.974 42.9395 10.974 42.9389 10.974C42.9383 10.974 42.9377 10.974 42.9371 10.974C42.9365 10.974 42.9359 10.974 42.9353 10.974C42.9346 10.974 42.934 10.974 42.9334 10.974C42.9328 10.974 42.9322 10.974 42.9316 10.974C42.931 10.974 42.9304 10.974 42.9298 10.974C42.9292 10.974 42.9285 10.974 42.9279 10.974C42.9273 10.974 42.9267 10.974 42.9261 10.974C42.9255 10.974 42.9249 10.974 42.9243 10.974C42.9237 10.974 42.923 10.974 42.9224 10.974C42.9218 10.974 42.9212 10.974 42.9206 10.974C42.92 10.974 42.9194 10.974 42.9188 10.974C42.9181 10.974 42.9175 10.974 42.9169 10.974C42.9163 10.974 42.9157 10.974 42.9151 10.974C42.9145 10.974 42.9138 10.974 42.9132 10.974C42.9126 10.974 42.912 10.974 42.9114 10.974C42.9108 10.974 42.9101 10.974 42.9095 10.974C42.9089 10.974 42.9083 10.974 42.9077 10.974C42.9071 10.974 42.9064 10.974 42.9058 10.974C42.9052 10.974 42.9046 10.974 42.904 10.974C42.9034 10.974 42.9027 10.974 42.9021 10.974C42.9015 10.974 42.9009 10.974 42.9003 10.974C42.8997 10.974 42.899 10.974 42.8984 10.974C42.8978 10.974 42.8972 10.974 42.8966 10.974C42.8959 10.974 42.8953 10.974 42.8947 10.974C42.8941 10.974 42.8935 10.974 42.8928 10.974C42.8922 10.974 42.8916 10.974 42.891 10.974C42.8904 10.974 42.8897 10.974 42.8891 10.974C42.8885 10.974 42.8879 10.974 42.8872 10.974C42.8866 10.974 42.886 10.974 42.8854 10.974C42.8848 10.974 42.8841 10.974 42.8835 10.974C42.8829 10.974 42.8823 10.974 42.8816 10.974C42.881 10.974 42.8804 10.974 42.8798 10.974C42.8791 10.974 42.8785 10.974 42.8779 10.974C42.8773 10.974 42.8766 10.974 42.876 10.974C42.8754 10.974 42.8748 10.974 42.8741 10.974C42.8735 10.974 42.8729 10.974 42.8723 10.974C42.8716 10.974 42.871 10.974 42.8704 10.974C42.8698 10.974 42.8691 10.974 42.8685 10.974C42.8679 10.974 42.8673 10.974 42.8666 10.974C42.866 10.974 42.8654 10.974 42.8647 10.974C42.8641 10.974 42.8635 10.974 42.8629 10.974C42.8622 10.974 42.8616 10.974 42.861 10.974C42.8603 10.974 42.8597 10.974 42.8591 10.974C42.8585 10.974 42.8578 10.974 42.8572 10.974C42.8566 10.974 42.8559 10.974 42.8553 10.974C42.8547 10.974 42.854 10.974 42.8534 10.974C42.8528 10.974 42.8521 10.974 42.8515 10.974C42.8509 10.974 42.8503 10.974 42.8496 10.974C42.849 10.974 42.8484 10.974 42.8477 10.974C42.8471 10.974 42.8465 10.974 42.8458 10.974C42.8452 10.974 42.8446 10.974 42.8439 10.974C42.8433 10.974 42.8427 10.974 42.842 10.974C42.8414 10.974 42.8408 10.974 42.8401 10.974C42.8395 10.974 42.8388 10.974 42.8382 10.974C42.8376 10.974 42.8369 10.974 42.8363 10.974C42.8357 10.974 42.835 10.974 42.8344 10.974C42.8338 10.974 42.8331 10.974 42.8325 10.974C42.8319 10.974 42.8312 10.974 42.8306 10.974C42.8299 10.974 42.8293 10.974 42.8287 10.974C42.828 10.974 42.8274 10.974 42.8268 10.974C42.8261 10.974 42.8255 10.974 42.8248 10.974C42.8242 10.974 42.8236 10.974 42.8229 10.974C42.8223 10.974 42.8216 10.974 42.821 10.974C42.8204 10.974 42.8197 10.974 42.8191 10.974C42.8184 10.974 42.8178 10.974 42.8172 10.974C42.8165 10.974 42.8159 10.974 42.8152 10.974C42.8146 10.974 42.814 10.974 42.8133 10.974C42.8127 10.974 42.812 10.974 42.8114 10.974C42.8107 10.974 42.8101 10.974 42.8095 10.974C42.8088 10.974 42.8082 10.974 42.8075 10.974C42.8069 10.974 42.8062 10.974 42.8056 10.974C42.805 10.974 42.8043 10.974 42.8037 10.974C42.803 10.974 42.8024 10.974 42.8017 10.974C42.8011 10.974 42.8004 10.974 42.7998 10.974C42.7992 10.974 42.7985 10.974 42.7979 10.974C42.7972 10.974 42.7966 10.974 42.7959 10.974C42.7953 10.974 42.7946 10.974 42.794 10.974C42.7933 10.974 42.7927 10.974 42.792 10.974C42.7914 10.974 42.7908 10.974 42.7901 10.974C42.7895 10.974 42.7888 10.974 42.7882 10.974C42.7875 10.974 42.7869 10.974 42.7862 10.974C42.7856 10.974 42.7849 10.974 42.7843 10.974C42.7836 10.974 42.783 10.974 42.7823 10.974C42.7817 10.974 42.781 10.974 42.7804 10.974C42.7797 10.974 42.7791 10.974 42.7784 10.974C42.7778 10.974 42.7771 10.974 42.7765 10.974C42.7758 10.974 42.7752 10.974 42.7745 10.974C42.7739 10.974 42.7732 10.974 42.7726 10.974C42.7719 10.974 42.7713 10.974 42.7706 10.974C42.7699 10.974 42.7693 10.974 42.7686 10.974C42.768 10.974 42.7673 10.974 42.7667 10.974C42.766 10.974 42.7654 10.974 42.7647 10.974C42.7641 10.974 42.7634 10.974 42.7628 10.974C42.7621 10.974 42.7614 10.974 42.7608 10.974C42.7601 10.974 42.7595 10.974 42.7588 10.974C42.7582 10.974 42.7575 10.974 42.7569 10.974C42.7562 10.974 42.7555 10.974 42.7549 10.974C42.7542 10.974 42.7536 10.974 42.7529 10.974C42.7523 10.974 42.7516 10.974 42.7509 10.974C42.7503 10.974 42.7496 10.974 42.749 10.974C42.7483 10.974 42.7477 10.974 42.747 10.974C42.7463 10.974 42.7457 10.974 42.745 10.974C42.7444 10.974 42.7437 10.974 42.743 10.974C42.7424 10.974 42.7417 10.974 42.7411 10.974C42.7404 10.974 42.7397 10.974 42.7391 10.974C42.7384 10.974 42.7378 10.974 42.7371 10.974C42.7364 10.974 42.7358 10.974 42.7351 10.974C42.7344 10.974 42.7338 10.974 42.7331 10.974C42.7325 10.974 42.7318 10.974 42.7311 10.974C42.7305 10.974 42.7298 10.974 42.7291 10.974C42.7285 10.974 42.7278 10.974 42.7271 10.974C42.7265 10.974 42.7258 10.974 42.7252 10.974C42.7245 10.974 42.7238 10.974 42.7232 10.974C42.7225 10.974 42.7218 10.974 42.7212 10.974C42.7205 10.974 42.7198 10.974 42.7192 10.974C42.7185 10.974 42.7178 10.974 42.7172 10.974C42.7165 10.974 42.7158 10.974 42.7152 10.974C42.7145 10.974 42.7138 10.974 42.7132 10.974C42.7125 10.974 42.7118 10.974 42.7112 10.974C42.7105 10.974 42.7098 10.974 42.7092 10.974C42.7085 10.974 42.7078 10.974 42.7072 10.974C42.7065 10.974 42.7058 10.974 42.7052 10.974C42.7045 10.974 42.7038 10.974 42.7031 10.974C42.7025 10.974 42.7018 10.974 42.7011 10.974C42.7005 10.974 42.6998 10.974 42.6991 10.974C42.6984 10.974 42.6978 10.974 42.6971 10.974C42.6964 10.974 42.6958 10.974 42.6951 10.974C42.6944 10.974 42.6937 10.974 42.6931 10.974C42.6924 10.974 42.6917 10.974 42.6911 10.974C42.6904 10.974 42.6897 10.974 42.689 10.974C42.6884 10.974 42.6877 10.974 42.687 10.974C42.6863 10.974 42.6857 10.974 42.685 10.974C42.6843 10.974 42.6836 10.974 42.683 10.974C42.6823 10.974 42.6816 10.974 42.6809 10.974C42.6803 10.974 42.6796 10.974 42.6789 10.974C42.6782 10.974 42.6776 10.974 42.6769 10.974C42.6762 10.974 42.6755 10.974 42.6749 10.974C42.6742 10.974 42.6735 10.974 42.6728 10.974C42.6721 10.974 42.6715 10.974 42.6708 10.974C42.6701 10.974 42.6694 10.974 42.6688 10.974C42.6681 10.974 42.6674 10.974 42.6667 10.974C42.666 10.974 42.6654 10.974 42.6647 10.974C42.664 10.974 42.6633 10.974 42.6626 10.974C42.662 10.974 42.6613 10.974 42.6606 10.974C42.6599 10.974 42.6592 10.974 42.6586 10.974C42.6579 10.974 42.6572 10.974 42.6565 10.974C42.6558 10.974 42.6552 10.974 42.6545 10.974C42.6538 10.974 42.6531 10.974 42.6524 10.974C42.6517 10.974 42.6511 10.974 42.6504 10.974C42.6497 10.974 42.649 10.974 42.6483 10.974C42.6476 10.974 42.647 10.974 42.6463 10.974C42.6456 10.974 42.6449 10.974 42.6442 10.974C42.6435 10.974 42.6429 10.974 42.6422 10.974C42.6415 10.974 42.6408 10.974 42.6401 10.974C42.6394 10.974 42.6387 10.974 42.6381 10.974C42.6374 10.974 42.6367 10.974 42.636 10.974C42.6353 10.974 42.6346 10.974 42.6339 10.974C42.6333 10.974 42.6326 10.974 42.6319 10.974C42.6312 10.974 42.6305 10.974 42.6298 10.974C42.6291 10.974 42.6284 10.974 42.6278 10.974C42.6271 10.974 42.6264 10.974 42.6257 10.974C42.625 10.974 42.6243 10.974 42.6236 10.974C42.6229 10.974 42.6222 10.974 42.6215 10.974C42.6209 10.974 42.6202 10.974 42.6195 10.974C42.6188 10.974 42.6181 10.974 42.6174 10.974C42.6167 10.974 42.616 10.974 42.6153 10.974C42.6146 10.974 42.6139 10.974 42.6133 10.974C42.6126 10.974 42.6119 10.974 42.6112 10.974C42.6105 10.974 42.6098 10.974 42.6091 10.974C42.6084 10.974 42.6077 10.974 42.607 10.974C42.6063 10.974 42.6056 10.974 42.6049 10.974C42.6042 10.974 42.6035 10.974 42.6029 10.974C42.6022 10.974 42.6015 10.974 42.6008 10.974C42.6001 10.974 42.5994 10.974 42.5987 10.974C42.598 10.974 42.5973 10.974 42.5966 10.974C42.5959 10.974 42.5952 10.974 42.5945 10.974C42.5938 10.974 42.5931 10.974 42.5924 10.974C42.5917 10.974 42.591 10.974 42.5903 10.974C42.5896 10.974 42.5889 10.974 42.5882 10.974C42.5875 10.974 42.5868 10.974 42.5861 10.974C42.5854 10.974 42.5847 10.974 42.584 10.974C42.5833 10.974 42.5826 10.974 42.5819 10.974C42.5812 10.974 42.5805 10.974 42.5798 10.974C42.5791 10.974 42.5784 10.974 42.5777 10.974C42.577 10.974 42.5763 10.974 42.5756 10.974C42.5749 10.974 42.5742 10.974 42.5735 10.974C42.5728 10.974 42.5721 10.974 42.5714 10.974C42.5707 10.974 42.57 10.974 42.5693 10.974C42.5686 10.974 42.5679 10.974 42.5672 10.974V11.224ZM43.4492 11.224L43.4361 11.4737L43.7781 11.4917L43.7912 11.242L43.8044 10.9923L43.4624 10.9743L43.4492 11.224ZM43.7912 11.242L43.774 11.4914C44.0853 11.5129 44.3581 11.598 44.5972 11.7435L44.7272 11.53L44.8572 11.3165C44.5443 11.126 44.1931 11.0191 43.8084 10.9926L43.7912 11.242ZM44.7272 11.53L44.6081 11.7498C44.8661 11.8895 45.0785 12.0706 45.2484 12.2935L45.4472 12.142L45.6461 11.9905C45.4319 11.7094 45.1643 11.4825 44.8463 11.3102L44.7272 11.53ZM45.4472 12.142L45.2484 12.2935C45.4191 12.5176 45.5431 12.7751 45.6192 13.0687L45.8612 13.006L46.1032 12.9433C46.0114 12.5889 45.8593 12.2704 45.6461 11.9905L45.4472 12.142ZM45.8612 13.006L45.6198 13.071C45.6927 13.3416 45.6993 13.6317 45.6344 13.9453L45.8792 13.996L46.124 14.0467C46.2031 13.6643 46.1978 13.2944 46.1026 12.941L45.8612 13.006ZM45.8792 13.996L45.6341 13.947L45.0041 17.097L45.2492 17.146L45.4944 17.195L46.1244 14.045L45.8792 13.996ZM45.2492 17.146L45.0041 17.097C44.9076 17.5791 44.6692 17.9717 44.2824 18.2833L44.4392 18.478L44.596 18.6727C45.0733 18.2883 45.3748 17.7929 45.4944 17.195L45.2492 17.146ZM44.4392 18.478L44.2797 18.2855C43.9051 18.5958 43.4757 18.75 42.9812 18.75V19V19.25C43.5907 19.25 44.1333 19.0562 44.5987 18.6705L44.4392 18.478ZM42.9812 19V18.75H34.7552V19V19.25H42.9812V19ZM34.7552 19V18.75C34.4327 18.75 34.1352 18.6805 33.859 18.5424L33.7472 18.766L33.6354 18.9896C33.9833 19.1635 34.3577 19.25 34.7552 19.25V19ZM33.7472 18.766L33.859 18.5424C33.5765 18.4011 33.3474 18.2189 33.1675 17.9967L32.9732 18.154L32.7789 18.3113C33.007 18.5931 33.2939 18.8189 33.6354 18.9896L33.7472 18.766ZM32.9732 18.154L33.1675 17.9967C32.9863 17.7728 32.8511 17.5095 32.7636 17.2033L32.5232 17.272L32.2828 17.3407C32.3873 17.7065 32.5521 18.0312 32.7789 18.3113L32.9732 18.154ZM32.5232 17.272L32.7657 17.2114C32.6913 16.9134 32.6852 16.603 32.7504 16.277L32.5052 16.228L32.2601 16.179C32.1813 16.573 32.1872 16.9586 32.2807 17.3326L32.5232 17.272ZM49.8358 6.4V6.15H49.6314L49.5908 6.35039L49.8358 6.4ZM62.6878 6.4L62.9329 6.44961L62.9935 6.15H62.6878V6.4ZM62.0938 9.334V9.584H62.2983L62.3389 9.38361L62.0938 9.334ZM55.6678 9.334V9.084L55.5962 9.57351L55.6678 9.334ZM57.7738 9.964L58.0189 10.0133L58.0639 9.78982L57.8455 9.72449L57.7738 9.964ZM55.9558 19V19.25H56.1605L56.2009 19.0493L55.9558 19ZM51.7618 19L51.5167 18.9511L51.4571 19.25H51.7618V19ZM53.6878 9.334L53.933 9.38285L53.9926 9.084H53.6878V9.334ZM49.2418 9.334L48.9968 9.28439L48.9362 9.584H49.2418V9.334ZM49.8358 6.4V6.65H62.6878V6.4V6.15H49.8358V6.4ZM62.6878 6.4L62.4428 6.35039L61.8488 9.28439L62.0938 9.334L62.3389 9.38361L62.9329 6.44961L62.6878 6.4ZM62.0938 9.334V9.084H55.6678V9.334V9.584H62.0938V9.334ZM55.6678 9.334L55.5962 9.57351L57.7022 10.2035L57.7738 9.964L57.8455 9.72449L55.7395 9.09449L55.6678 9.334ZM57.7738 9.964L57.5288 9.91469L55.7108 18.9507L55.9558 19L56.2009 19.0493L58.0189 10.0133L57.7738 9.964ZM55.9558 19V18.75H51.7618V19V19.25H55.9558V19ZM51.7618 19L52.007 19.0489L53.933 9.38285L53.6878 9.334L53.4427 9.28515L51.5167 18.9511L51.7618 19ZM53.6878 9.334V9.084H49.2418V9.334V9.584H53.6878V9.334ZM49.2418 9.334L49.4869 9.38361L50.0809 6.44961L49.8358 6.4L49.5908 6.35039L48.9968 9.28439L49.2418 9.334ZM85.2078 15.436V15.186H85.0023L84.9625 15.3877L85.2078 15.436ZM84.5058 19V19.25H84.7114L84.7511 19.0483L84.5058 19ZM80.5098 19L80.2647 18.951L80.2049 19.25H80.5098V19ZM83.0298 6.4V6.15H82.8249L82.7847 6.35097L83.0298 6.4ZM96.4758 6.58L96.364 6.80365L96.3683 6.80571L96.4758 6.58ZM97.1058 7.084L96.9084 7.23754L96.9128 7.24293L97.1058 7.084ZM97.4658 7.786L97.2244 7.85184L97.2276 7.8618L97.4658 7.786ZM97.5018 8.614L97.2571 8.56301L97.2567 8.56497L97.5018 8.614ZM96.4758 13.744L96.2307 13.695L96.2304 13.6961L96.4758 13.744ZM95.7378 14.968L95.8955 15.162L95.8961 15.1615L95.7378 14.968ZM85.8018 12.484L85.5567 12.435L85.4969 12.734H85.8018V12.484ZM93.0018 12.16L93.2446 12.2207L93.2469 12.2094L93.0018 12.16ZM93.4698 9.838L93.7149 9.8874L93.7158 9.88272L93.4698 9.838ZM93.3798 9.496L93.1825 9.64948L93.1869 9.65519L93.1917 9.66063L93.3798 9.496ZM84.1998 9.334V9.084L84.1282 9.57351L84.1998 9.334ZM86.3058 9.964L86.551 10.013L86.5956 9.78975L86.3775 9.72449L86.3058 9.964ZM94.4058 15.436V15.186H85.2078V15.436V15.686H94.4058V15.436ZM85.2078 15.436L84.9625 15.3877L84.2605 18.9517L84.5058 19L84.7511 19.0483L85.4531 15.4843L85.2078 15.436ZM84.5058 19V18.75H80.5098V19V19.25H84.5058V19ZM80.5098 19L80.755 19.049L83.275 6.44903L83.0298 6.4L82.7847 6.35097L80.2647 18.951L80.5098 19ZM83.0298 6.4V6.65H95.6838V6.4V6.15H83.0298V6.4ZM95.6838 6.4V6.65C95.9359 6.65 96.1612 6.70222 96.364 6.80361L96.4758 6.58L96.5876 6.35639C96.3104 6.21778 96.0077 6.15 95.6838 6.15V6.4ZM96.4758 6.58L96.3683 6.80571C96.5859 6.90931 96.7649 7.05286 96.9085 7.23748L97.1058 7.084L97.3031 6.93051C97.1107 6.68314 96.8697 6.49069 96.5833 6.35428L96.4758 6.58ZM97.1058 7.084L96.9128 7.24293C97.0575 7.41866 97.1616 7.62065 97.2246 7.85178L97.4658 7.786L97.707 7.72022C97.626 7.42335 97.4901 7.15734 97.2988 6.92507L97.1058 7.084ZM97.4658 7.786L97.2276 7.8618C97.2977 8.08225 97.3089 8.31443 97.2571 8.56301L97.5018 8.614L97.7466 8.66499C97.8148 8.33757 97.8019 8.01775 97.704 7.7102L97.4658 7.786ZM97.5018 8.614L97.2567 8.56497L96.2307 13.695L96.4758 13.744L96.721 13.793L97.747 8.66303L97.5018 8.614ZM96.4758 13.744L96.2304 13.6961C96.1459 14.1296 95.9314 14.4866 95.5795 14.7745L95.7378 14.968L95.8961 15.1615C96.3362 14.8014 96.6138 14.3424 96.7212 13.7919L96.4758 13.744ZM95.7378 14.968L95.5802 14.774C95.2416 15.049 94.8536 15.186 94.4058 15.186V15.436V15.686C94.9661 15.686 95.466 15.511 95.8955 15.162L95.7378 14.968ZM85.8018 12.484V12.734H92.6058V12.484V12.234H85.8018V12.484ZM92.6058 12.484V12.734C92.7587 12.734 92.8997 12.6845 93.0179 12.5861L92.8578 12.394L92.6978 12.2019C92.6719 12.2235 92.6449 12.234 92.6058 12.234V12.484ZM92.8578 12.394L93.0179 12.5861C93.1329 12.4901 93.2083 12.365 93.2443 12.2206L93.0018 12.16L92.7593 12.0994C92.7474 12.147 92.7267 12.1779 92.6978 12.2019L92.8578 12.394ZM93.0018 12.16L93.2469 12.2094L93.7149 9.88739L93.4698 9.838L93.2247 9.78861L92.7567 12.1106L93.0018 12.16ZM93.4698 9.838L93.7158 9.88272C93.7526 9.68026 93.705 9.48805 93.568 9.33137L93.3798 9.496L93.1917 9.66063C93.2226 9.69595 93.235 9.73174 93.2238 9.79328L93.4698 9.838ZM93.3798 9.496L93.5771 9.34251C93.4478 9.17621 93.2682 9.084 93.0558 9.084V9.334V9.584C93.1074 9.584 93.1438 9.59979 93.1825 9.64948L93.3798 9.496ZM93.0558 9.334V9.084H84.1998V9.334V9.584H93.0558V9.334ZM84.1998 9.334L84.1282 9.57351L86.2342 10.2035L86.3058 9.964L86.3775 9.72449L84.2715 9.09449L84.1998 9.334ZM86.3058 9.964L86.0607 9.91497L85.5567 12.435L85.8018 12.484L86.047 12.533L86.551 10.013L86.3058 9.964ZM113.006 6.616L112.89 6.83794L112.902 6.84327L113.006 6.616ZM113.726 7.174L113.53 7.33022L113.534 7.33503L113.726 7.174ZM114.14 7.966L114.38 7.89859V7.89859L114.14 7.966ZM114.158 8.902L113.914 8.84775L113.913 8.85317L114.158 8.902ZM112.484 17.308L112.239 17.2592L112.238 17.2612L112.484 17.308ZM111.746 18.532L111.591 18.3356L111.588 18.338L111.746 18.532ZM100.334 18.802L100.218 19.0239L100.23 19.0293L100.334 18.802ZM99.6317 18.244L99.4314 18.3942L99.4405 18.405L99.6317 18.244ZM99.2357 17.434L98.9943 17.499L98.995 17.5014L99.2357 17.434ZM99.1997 16.48L98.9546 16.4306L98.9539 16.4345L99.1997 16.48ZM100.892 8.092L101.137 8.14144L101.137 8.13878L100.892 8.092ZM101.612 6.868L101.454 6.67397V6.67397L101.612 6.868ZM102.188 9.334V9.084L102.116 9.57351L102.188 9.334ZM104.294 9.964L104.539 10.0129L104.583 9.78971L104.365 9.72449L104.294 9.964ZM103.178 15.562L102.933 15.5131L102.932 15.5173L103.178 15.562ZM103.268 15.922L103.07 16.0755L103.075 16.0812L103.08 16.0866L103.268 15.922ZM111.17 16.066V16.316L111.242 15.8267L111.17 16.066ZM109.082 15.436L108.837 15.3871L108.792 15.6098L109.009 15.6753L109.082 15.436ZM110.198 9.838L110.443 9.88688L110.444 9.88272L110.198 9.838ZM110.108 9.496L109.91 9.64948L109.915 9.65519L109.92 9.66063L110.108 9.496ZM112.106 6.4V6.65C112.391 6.65 112.651 6.71304 112.89 6.83765L113.006 6.616L113.121 6.39435C112.808 6.23096 112.468 6.15 112.106 6.15V6.4ZM113.006 6.616L112.902 6.84327C113.155 6.95952 113.364 7.12161 113.53 7.33017L113.726 7.174L113.921 7.01783C113.704 6.74639 113.432 6.53648 113.11 6.38873L113.006 6.616ZM113.726 7.174L113.534 7.33503C113.702 7.53448 113.824 7.7662 113.899 8.03341L114.14 7.966L114.38 7.89859C114.287 7.56579 114.133 7.26952 113.917 7.01297L113.726 7.174ZM114.14 7.966L113.899 8.03341C113.971 8.29117 113.977 8.56126 113.914 8.84777L114.158 8.902L114.402 8.95623C114.482 8.59474 114.476 8.24083 114.38 7.89859L114.14 7.966ZM114.158 8.902L113.913 8.85317L112.239 17.2592L112.484 17.308L112.729 17.3568L114.403 8.95083L114.158 8.902ZM112.484 17.308L112.238 17.2612C112.153 17.7072 111.939 18.0616 111.591 18.3356L111.746 18.532L111.9 18.7284C112.345 18.3784 112.622 17.9168 112.729 17.3548L112.484 17.308ZM111.746 18.532L111.588 18.338C111.25 18.613 110.861 18.75 110.414 18.75V19V19.25C110.974 19.25 111.474 19.075 111.903 18.726L111.746 18.532ZM110.414 19V18.75H101.27V19V19.25H110.414V19ZM101.27 19V18.75C100.967 18.75 100.691 18.6909 100.438 18.5747L100.334 18.802L100.23 19.0293C100.552 19.1771 100.9 19.25 101.27 19.25V19ZM100.334 18.802L100.449 18.5804C100.201 18.4508 99.993 18.2849 99.8229 18.083L99.6317 18.244L99.4405 18.405C99.6544 18.6591 99.9145 18.8652 100.218 19.0236L100.334 18.802ZM99.6317 18.244L99.8317 18.094C99.671 17.8797 99.5524 17.6379 99.4765 17.3666L99.2357 17.434L98.995 17.5014C99.087 17.8301 99.2324 18.1283 99.4317 18.394L99.6317 18.244ZM99.2357 17.434L99.4771 17.369C99.403 17.0938 99.3922 16.8136 99.4455 16.5255L99.1997 16.48L98.9539 16.4345C98.8872 16.7944 98.9004 17.1502 98.9943 17.499L99.2357 17.434ZM99.1997 16.48L99.4448 16.5294L101.137 8.14143L100.892 8.092L100.647 8.04257L98.9546 16.4306L99.1997 16.48ZM100.892 8.092L101.137 8.13878C101.223 7.69036 101.433 7.33538 101.769 7.06203L101.612 6.868L101.454 6.67397C101.022 7.02462 100.753 7.48564 100.646 8.04522L100.892 8.092ZM101.612 6.868L101.769 7.06203C102.108 6.78696 102.496 6.65 102.944 6.65V6.4V6.15C102.383 6.15 101.884 6.32504 101.454 6.67397L101.612 6.868ZM102.944 6.4V6.65H112.106V6.4V6.15H102.944V6.4ZM102.188 9.334L102.116 9.57351L104.222 10.2035L104.294 9.964L104.365 9.72449L102.259 9.09449L102.188 9.334ZM104.294 9.964L104.049 9.91512L102.933 15.5131L103.178 15.562L103.423 15.6109L104.539 10.0129L104.294 9.964ZM103.178 15.562L102.932 15.5173C102.895 15.7208 102.944 15.9126 103.07 16.0755L103.268 15.922L103.465 15.7685C103.424 15.7154 103.413 15.6672 103.424 15.6067L103.178 15.562ZM103.268 15.922L103.08 16.0866C103.213 16.239 103.39 16.316 103.592 16.316V16.066V15.816C103.529 15.816 103.491 15.797 103.456 15.7574L103.268 15.922ZM103.592 16.066V16.316H111.17V16.066V15.816H103.592V16.066ZM111.17 16.066L111.242 15.8267L109.154 15.1967L109.082 15.436L109.009 15.6753L111.097 16.3053L111.17 16.066ZM109.082 15.436L109.327 15.4849L110.443 9.88688L110.198 9.838L109.953 9.78912L108.837 15.3871L109.082 15.436ZM110.198 9.838L110.444 9.88272C110.48 9.68026 110.433 9.48805 110.296 9.33137L110.108 9.496L109.92 9.66063C109.95 9.69595 109.963 9.73174 109.952 9.79328L110.198 9.838ZM110.108 9.496L110.305 9.34251C110.176 9.17621 109.996 9.084 109.784 9.084V9.334V9.584C109.835 9.584 109.872 9.59979 109.91 9.64948L110.108 9.496ZM109.784 9.334V9.084H102.188V9.334V9.584H109.784V9.334ZM122.077 13.888L122.285 13.749L122.136 13.5258L121.924 13.6907L122.077 13.888ZM118.351 16.786L118.198 16.5887L118.462 17.01L118.351 16.786ZM120.241 15.85L120.486 15.899L120.586 15.4002L120.13 15.626L120.241 15.85ZM119.611 19V19.25H119.816L119.856 19.049L119.611 19ZM115.831 19L115.586 18.951L115.526 19.25H115.831V19ZM118.351 6.4V6.15H118.146L118.106 6.35097L118.351 6.4ZM122.131 6.4L122.376 6.44884L122.436 6.15H122.131V6.4ZM121.231 10.918L120.986 10.8692L120.86 11.5003L121.379 11.1195L121.231 10.918ZM127.387 6.4V6.15H127.305L127.239 6.19845L127.387 6.4ZM131.797 6.4L131.95 6.5981L132.532 6.15H131.797V6.4ZM124.993 11.638L124.841 11.4399L124.656 11.5824L124.785 11.7768L124.993 11.638ZM129.907 19V19.25H130.375L130.115 18.8612L129.907 19ZM125.497 19L125.29 19.139L125.364 19.25H125.497V19ZM122.077 13.888L121.924 13.6907L118.198 16.5887L118.351 16.786L118.505 16.9833L122.231 14.0853L122.077 13.888ZM118.351 16.786L118.462 17.01L120.352 16.074L120.241 15.85L120.13 15.626L118.24 16.562L118.351 16.786ZM120.241 15.85L119.996 15.801L119.366 18.951L119.611 19L119.856 19.049L120.486 15.899L120.241 15.85ZM119.611 19V18.75H115.831V19V19.25H119.611V19ZM115.831 19L116.076 19.049L118.596 6.44903L118.351 6.4L118.106 6.35097L115.586 18.951L115.831 19ZM118.351 6.4V6.65H122.131V6.4V6.15H118.351V6.4ZM122.131 6.4L121.886 6.35116L120.986 10.8692L121.231 10.918L121.476 10.9668L122.376 6.44884L122.131 6.4ZM121.231 10.918L121.379 11.1195L127.535 6.60154L127.387 6.4L127.239 6.19845L121.083 10.7165L121.231 10.918ZM127.387 6.4V6.65H131.797V6.4V6.15H127.387V6.4ZM131.797 6.4L131.645 6.2019L124.841 11.4399L124.993 11.638L125.146 11.8361L131.95 6.5981L131.797 6.4ZM124.993 11.638L124.785 11.7768L129.699 19.1388L129.907 19L130.115 18.8612L125.201 11.4992L124.993 11.638ZM129.907 19V18.75H125.497V19V19.25H129.907V19ZM125.497 19L125.705 18.861L122.285 13.749L122.077 13.888L121.87 14.027L125.29 19.139L125.497 19ZM135.54 9.334V9.084L135.469 9.57351L135.54 9.334ZM137.646 9.964L137.892 10.0124L137.936 9.78958L137.718 9.72449L137.646 9.964ZM137.376 11.332L137.131 11.2836L137.072 11.582H137.376V11.332ZM144.108 11.332L144.354 11.3804L144.413 11.082H144.108V11.332ZM143.568 14.068V14.318H143.774L143.814 14.1164L143.568 14.068ZM136.818 14.068V13.818H136.612L136.573 14.0207L136.818 14.068ZM136.53 15.562L136.285 15.5147L136.284 15.5173L136.53 15.562ZM136.62 15.922L136.423 16.0755L136.428 16.0812L136.432 16.0866L136.62 15.922ZM144.396 16.066L144.642 16.1142L144.7 15.816H144.396V16.066ZM143.82 19V19.25H144.026L144.066 19.0482L143.82 19ZM133.686 18.802L133.571 19.0239L133.582 19.0293L133.686 18.802ZM132.984 18.244L132.784 18.3942L132.793 18.405L132.984 18.244ZM132.588 17.434L132.347 17.499L132.348 17.5014L132.588 17.434ZM132.552 16.48L132.307 16.431L132.307 16.4345L132.552 16.48ZM134.568 6.4V6.15H134.363L134.323 6.35097L134.568 6.4ZM146.34 6.4L146.585 6.44961L146.646 6.15H146.34V6.4ZM145.746 9.334V9.584H145.951L145.991 9.38361L145.746 9.334ZM135.54 9.334L135.469 9.57351L137.575 10.2035L137.646 9.964L137.718 9.72449L135.612 9.09449L135.54 9.334ZM137.646 9.964L137.401 9.91559L137.131 11.2836L137.376 11.332L137.622 11.3804L137.892 10.0124L137.646 9.964ZM137.376 11.332V11.582H144.108V11.332V11.082H137.376V11.332ZM144.108 11.332L143.863 11.2836L143.323 14.0196L143.568 14.068L143.814 14.1164L144.354 11.3804L144.108 11.332ZM143.568 14.068V13.818H136.818V14.068V14.318H143.568V14.068ZM136.818 14.068L136.573 14.0207L136.285 15.5147L136.53 15.562L136.776 15.6093L137.064 14.1153L136.818 14.068ZM136.53 15.562L136.284 15.5173C136.247 15.7208 136.296 15.9126 136.423 16.0755L136.62 15.922L136.818 15.7685C136.776 15.7154 136.765 15.6672 136.776 15.6067L136.53 15.562ZM136.62 15.922L136.432 16.0866C136.566 16.239 136.743 16.316 136.944 16.316V16.066V15.816C136.882 15.816 136.843 15.797 136.809 15.7574L136.62 15.922ZM136.944 16.066V16.316H144.396V16.066V15.816H136.944V16.066ZM144.396 16.066L144.151 16.0178L143.575 18.9518L143.82 19L144.066 19.0482L144.642 16.1142L144.396 16.066ZM143.82 19V18.75H134.622V19V19.25H143.82V19ZM134.622 19V18.75C134.32 18.75 134.044 18.6909 133.791 18.5747L133.686 18.802L133.582 19.0293C133.905 19.1771 134.253 19.25 134.622 19.25V19ZM133.686 18.802L133.802 18.5804C133.554 18.4508 133.346 18.2849 133.176 18.083L132.984 18.244L132.793 18.405C133.007 18.6591 133.267 18.8652 133.571 19.0236L133.686 18.802ZM132.984 18.244L133.184 18.094C133.024 17.8797 132.905 17.6379 132.829 17.3666L132.588 17.434L132.348 17.5014C132.44 17.8301 132.585 18.1283 132.784 18.394L132.984 18.244ZM132.588 17.434L132.83 17.369C132.756 17.0938 132.745 16.8136 132.798 16.5255L132.552 16.48L132.307 16.4345C132.24 16.7944 132.253 17.1502 132.347 17.499L132.588 17.434ZM132.552 16.48L132.798 16.529L134.814 6.44903L134.568 6.4L134.323 6.35097L132.307 16.431L132.552 16.48ZM134.568 6.4V6.65H146.34V6.4V6.15H134.568V6.4ZM146.34 6.4L146.095 6.35039L145.501 9.28439L145.746 9.334L145.991 9.38361L146.585 6.44961L146.34 6.4ZM145.746 9.334V9.084H135.54V9.334V9.584H145.746V9.334ZM156.605 15.436L156.833 15.3335L156.766 15.186H156.605V15.436ZM151.997 15.436V15.186H151.792L151.751 15.3865L151.997 15.436ZM151.277 19V19.25H151.481L151.522 19.0495L151.277 19ZM147.497 19L147.251 18.951L147.192 19.25H147.497V19ZM150.017 6.4V6.15H149.812L149.771 6.35097L150.017 6.4ZM163.067 6.616L162.951 6.83794L162.962 6.84327L163.067 6.616ZM163.769 7.174L163.568 7.32424L163.577 7.33503L163.769 7.174ZM164.183 7.966L163.942 8.03341V8.03341L164.183 7.966ZM164.219 8.902L164.464 8.95121L164.464 8.94752L164.219 8.902ZM163.247 13.744L163.001 13.6948L163.001 13.6961L163.247 13.744ZM162.527 14.968L162.684 15.1621L162.688 15.1591L162.527 14.968ZM160.385 15.436V15.186H159.998L160.156 15.5385L160.385 15.436ZM161.987 19V19.25H162.373L162.215 18.8975L161.987 19ZM158.207 19L157.979 19.1025L158.045 19.25H158.207V19ZM159.629 12.394L159.483 12.1906L159.476 12.196L159.468 12.2019L159.629 12.394ZM159.791 12.16L160.033 12.2207L160.036 12.2076L159.791 12.16ZM160.241 9.838L160.486 9.88557L160.486 9.88272L160.241 9.838ZM160.151 9.496L159.943 9.63468L159.952 9.6483L159.962 9.66063L160.151 9.496ZM150.989 9.334V9.084L150.916 9.57334L150.989 9.334ZM153.077 9.964L153.322 10.013L153.366 9.79028L153.149 9.72466L153.077 9.964ZM152.573 12.484L152.327 12.435L152.268 12.734H152.573V12.484ZM156.605 15.436V15.186H151.997V15.436V15.686H156.605V15.436ZM151.997 15.436L151.751 15.3865L151.031 18.9505L151.277 19L151.522 19.0495L152.242 15.4855L151.997 15.436ZM151.277 19V18.75H147.497V19V19.25H151.277V19ZM147.497 19L147.742 19.049L150.262 6.44903L150.017 6.4L149.771 6.35097L147.251 18.951L147.497 19ZM150.017 6.4V6.65H162.149V6.4V6.15H150.017V6.4ZM162.149 6.4V6.65C162.448 6.65 162.713 6.71373 162.951 6.83765L163.067 6.616L163.182 6.39435C162.868 6.23027 162.522 6.15 162.149 6.15V6.4ZM163.067 6.616L162.962 6.84327C163.215 6.95891 163.415 7.11922 163.569 7.324L163.769 7.174L163.969 7.024C163.762 6.74878 163.494 6.53709 163.171 6.38873L163.067 6.616ZM163.769 7.174L163.577 7.33503C163.745 7.53448 163.867 7.7662 163.942 8.03341L164.183 7.966L164.423 7.89859C164.33 7.56579 164.176 7.26952 163.96 7.01297L163.769 7.174ZM164.183 7.966L163.942 8.03341C164.015 8.29453 164.026 8.56779 163.973 8.85648L164.219 8.902L164.464 8.94752C164.531 8.5882 164.518 8.23747 164.423 7.89859L164.183 7.966ZM164.219 8.902L163.973 8.85279L163.001 13.6948L163.247 13.744L163.492 13.7932L164.464 8.9512L164.219 8.902ZM163.247 13.744L163.001 13.6961C162.916 14.1321 162.706 14.4896 162.365 14.7769L162.527 14.968L162.688 15.1591C163.115 14.7984 163.385 14.3399 163.492 13.7919L163.247 13.744ZM162.527 14.968L162.369 14.774C162.03 15.049 161.642 15.186 161.195 15.186V15.436V15.686C161.755 15.686 162.255 15.511 162.684 15.162L162.527 14.968ZM161.195 15.436V15.186H160.385V15.436V15.686H161.195V15.436ZM160.385 15.436L160.156 15.5385L161.758 19.1025L161.987 19L162.215 18.8975L160.613 15.3335L160.385 15.436ZM161.987 19V18.75H158.207V19V19.25H161.987V19ZM158.207 19L158.435 18.8975L156.833 15.3335L156.605 15.436L156.376 15.5385L157.979 19.1025L158.207 19ZM159.377 12.484V12.734C159.529 12.734 159.67 12.6845 159.789 12.5861L159.629 12.394L159.468 12.2019C159.443 12.2235 159.416 12.234 159.377 12.234V12.484ZM159.629 12.394L159.774 12.5974C159.904 12.5045 159.994 12.3769 160.033 12.2206L159.791 12.16L159.548 12.0994C159.539 12.1351 159.521 12.1635 159.483 12.1906L159.629 12.394ZM159.791 12.16L160.036 12.2076L160.486 9.88556L160.241 9.838L159.995 9.79043L159.545 12.1124L159.791 12.16ZM160.241 9.838L160.486 9.88272C160.523 9.68026 160.476 9.48805 160.339 9.33137L160.151 9.496L159.962 9.66063C159.993 9.69595 160.006 9.73174 159.995 9.79328L160.241 9.838ZM160.151 9.496L160.359 9.35732C160.239 9.17837 160.058 9.084 159.845 9.084V9.334V9.584C159.895 9.584 159.918 9.59763 159.943 9.63468L160.151 9.496ZM159.845 9.334V9.084H150.989V9.334V9.584H159.845V9.334ZM150.989 9.334L150.916 9.57334L153.004 10.2033L153.077 9.964L153.149 9.72466L151.061 9.09466L150.989 9.334ZM153.077 9.964L152.831 9.91497L152.327 12.435L152.573 12.484L152.818 12.533L153.322 10.013L153.077 9.964ZM152.573 12.484V12.734H159.377V12.484V12.234H152.573V12.484Z" fill="#7C7C7C" mask="url(#path-2-outside-1_22_1078)"></path>
<defs>
<filter id="filter0_i_22_1078" x="0.428284" y="3.15002" width="164.078" height="16.1" filterUnits="userSpaceOnUse" color-interpolation-filters="sRGB">
<feFlood flood-opacity="0" result="BackgroundImageFix"></feFlood>
<feBlend mode="normal" in="SourceGraphic" in2="BackgroundImageFix" result="shape"></feBlend>
<feColorMatrix in="SourceAlpha" type="matrix" values="0 0 0 0 0 0 0 0 0 0 0 0 0 0 0 0 0 0 127 0" result="hardAlpha"></feColorMatrix>
<feOffset dy="-3"></feOffset>
<feGaussianBlur stdDeviation="2"></feGaussianBlur>
<feComposite in2="hardAlpha" operator="arithmetic" k2="-1" k3="1"></feComposite>
<feColorMatrix type="matrix" values="0 0 0 0 0.876916 0 0 0 0 0.876916 0 0 0 0 0.876916 0 0 0 0.75 0"></feColorMatrix>
<feBlend mode="normal" in2="shape" result="effect1_innerShadow_22_1078"></feBlend>
</filter>
<linearGradient id="paint0_linear_22_1078" x1="75.5" y1="2" x2="71" y2="25" gradientUnits="userSpaceOnUse">
<stop></stop>
<stop offset="0.99912" stop-color="#666666"></stop>
</linearGradient>
</defs>
</svg>