<svg xmlns="http://www.w3.org/2000/svg" viewBox="0 0 64 64" role="img" aria-label="USDC">
  <circle cx="32" cy="32" r="32" fill="#2775CA"/>
  <path fill="#fff" d="M20.4 38.8c0-1.2.9-2 2-2s2 .8 2 2c0 2 2.2 3.6 5.3 4v-8.5c-4.3-1.1-8.3-2.9-8.3-7.6 0-4 3.3-7 8.3-7.6v-2.7h4.1v2.8c4.7.7 8 3.4 8 7 0 1.2-.9 2-2 2s-2-.8-2-2c0-1.5-1.6-2.8-4-3.3v7.8c4.5 1.1 8.8 2.9 8.8 7.8 0 4.5-3.4 7.5-8.8 8.2v3h-4.1v-3c-5.3-.7-9.3-3.8-9.3-7.9Zm9.3-9.1v-6.8c-2.5.4-4.1 1.8-4.1 3.6 0 1.5 1.3 2.4 4.1 3.2Zm4.1 5.6v7.5c2.9-.4 4.6-1.8 4.6-3.9 0-1.8-1.5-2.7-4.6-3.6Z"/>
  <path fill="#fff" fill-rule="evenodd" d="M32 9.3c-12.5 0-22.7 10.2-22.7 22.7S19.5 54.7 32 54.7 54.7 44.5 54.7 32 44.5 9.3 32 9.3Zm0 4.2c10.2 0 18.5 8.3 18.5 18.5S42.2 50.5 32 50.5 13.5 42.2 13.5 32 21.8 13.5 32 13.5Z" clip-rule="evenodd" opacity=".9"/>
</svg>
